# Alias OBJ Model File
# Exported from SketchUp, (c) 2000-2012 Trimble Navigation Limited
# File units = millimeters

mtllib TelecomCATV Pole4.mtl

g Mesh1 Component2_1 Component1 Model

usemtl Metal_Corrogated_Shiny
v -30.0876 12362.8 151.64
vt 2.38872 1.26643
vn 0 1 -0
v 101.5 12362.8 121.606
vt 3.82778 1.59489
v 160.063 12362.8 -1.27e-05
vt 4.46823 2.92478
v 101.5 12362.8 -121.606
vt 3.82778 4.25468
v -30.0876 12362.8 -151.64
vt 2.38872 4.58314
v -135.613 12362.8 -67.486
vt 1.23468 3.66282
v -135.613 12362.8 67.486
vt 1.23468 2.18675
f 1/1/1 2/2/1 3/3/1 4/4/1 5/5/1 6/6/1 7/7/1 

usemtl _auto_3
vt 4.93872 8.74699
vn -0 -1 0
vt 4.93872 14.6513
vt 9.55488 18.3325
vt 15.3111 17.0187
vt 17.8729 11.6991
vt 15.3111 6.37955
vt 9.55488 5.06573
f 7/8/2 6/9/2 5/10/2 4/11/2 3/12/2 2/13/2 1/14/2 

usemtl Metal_Corrogated_Shiny
vt -3.66282 198.254
vn -0.999995 0.00326635 -6.54788e-18
v -222.438 0 -107.121
vt -4.09627 0.00136571
v -222.438 0 107.121
vt -1.7533 0.00136571
vt -2.18675 198.254
f 6/15/3 8/16/3 9/17/3 7/18/3 

vt -4.72511 198.238
vn -0.623487 0.00320229 -0.781828
v -54.9378 0 -240.698
vt -5.11989 -0.0142032
vt -2.77692 -0.0142032
vt -3.24904 198.238
f 5/19/4 10/20/4 8/21/4 6/22/4 

usemtl _auto_3
vt -11.1402 792.902
vn 0.22252 0.00305833 -0.974923
v 153.932 0 -193.025
vt -12.6811 -0.105634
vt -3.30924 -0.105634
vt -5.23594 792.902
f 4/23/5 11/24/5 10/25/5 5/26/5 

vt 2.78579 792.901
vn 0.900965 0.00294289 -0.433882
v 246.888 0 -1.27e-05
vt 1.13784 -0.106159
vt 10.5097 -0.106159
vt 8.69008 792.901
f 3/27/6 12/28/6 11/29/6 4/30/6 

usemtl Metal_Corrogated_Shiny
v 153.932 0 193.025
vt 2.64285 -0.0155875
vn 0.900965 0.00294289 0.433882
vt 4.98582 -0.0155875
vt 4.57383 198.236
vt 3.09776 198.236
f 13/31/7 12/32/7 3/33/7 2/34/7 

vn -0.900965 -0.00294289 -0.433882
f 2/34/8 3/33/8 12/32/8 13/31/8 

usemtl _auto_3
vn -0.900965 -0.00294289 0.433882
f 4/30/9 11/29/9 12/28/9 3/27/9 

vn -0.22252 -0.00305833 0.974923
f 5/26/10 10/25/10 11/24/10 4/23/10 

vt -12.9962 792.952
vn 0.623487 -0.00320229 0.781828
vt -11.1077 -0.0568129
vt -20.4796 -0.0568129
vt -18.9005 792.952
f 6/35/11 8/36/11 10/37/11 5/38/11 

vt -8.74699 793.015
vn 0.999995 -0.00326635 6.54788e-18
vt -7.01319 0.00546284
vt -16.3851 0.00546284
vt -14.6513 793.015
f 7/39/12 9/40/12 8/41/12 6/42/12 

usemtl Metal_Corrogated_Shiny
vt -0.398104 198.259
vn -0.623487 0.00320229 0.781827
vt -0.870228 0.00727143
v -54.9378 0 240.698
vt 1.47274 0.00727143
vt 1.07797 198.259
f 7/43/13 9/44/13 14/45/13 1/46/13 

usemtl _auto_3
vt 4.31188 793.038
vn 0.623487 -0.00320229 -0.781827
vt 5.89098 0.0290857
vt -3.48091 0.0290857
vt -1.59242 793.038
f 1/47/14 14/48/14 9/49/14 7/50/14 

usemtl Metal_Corrogated_Shiny
vt 2.61064 198.251
vn 0.22252 0.00305833 0.974923
vt 2.12896 -0.000833766
vt 4.47193 -0.000833766
vt 4.08671 198.251
f 1/51/15 14/52/15 13/53/15 2/54/15 

usemtl _auto_3
vt 16.3468 793.005
vn -0.22252 -0.00305833 -0.974923
vt 17.8877 -0.00333506
vt 8.51584 -0.00333506
vt 10.4425 793.005
f 2/55/16 13/56/16 14/57/16 1/58/16 

g Mesh2 Component1_1 Component1 Model

usemtl _auto_
v 585.674 8802.99 10.8899
vt 0 5
vn -1 0 -0
v 585.674 8750.34 -61.5806
vt 2.07295 2.14683
v 585.674 8665.15 -33.8994
vt 5.42705 3.23664
v 585.674 8665.15 55.6791
vt 5.42705 6.76336
v 585.674 8750.34 83.3604
vt 2.07295 7.85317
f 15/59/17 16/60/17 17/61/17 18/62/17 19/63/17 

vn 1 -0 0
f 19/63/18 18/62/18 17/61/18 16/60/18 15/59/18 

g Mesh3 Component1_1 Component1 Model

v 935.95 8802.99 10.8899
v 935.95 8750.34 -61.5806
v 935.95 8665.15 -33.8994
v 935.95 8665.15 55.6791
v 935.95 8750.34 83.3604
f 20/59/17 21/60/17 22/61/17 23/62/17 24/63/17 

f 24/63/18 23/62/18 22/61/18 21/60/18 20/59/18 

g Mesh4 Component1_1 Component1 Model

v 1006.01 8802.99 10.8899
v 1006.01 8750.34 -61.5806
v 1006.01 8665.15 -33.8994
v 1006.01 8665.15 55.6791
v 1006.01 8750.34 83.3604
f 25/59/17 26/60/17 27/61/17 28/62/17 29/63/17 

f 29/63/18 28/62/18 27/61/18 26/60/18 25/59/18 

g Mesh5 Component1_1 Component1 Model

v 795.84 8802.99 10.8899
v 795.84 8750.34 -61.5806
v 795.84 8665.15 -33.8994
v 795.84 8665.15 55.6791
v 795.84 8750.34 83.3604
f 30/59/17 31/60/17 32/61/17 33/62/17 34/63/17 

f 34/63/18 33/62/18 32/61/18 31/60/18 30/59/18 

g Mesh6 Component1_1 Component1 Model

v 375.508 8802.99 10.8899
v 375.508 8750.34 -61.5806
v 375.508 8665.15 -33.8994
v 375.508 8665.15 55.6791
v 375.508 8750.34 83.3604
f 35/59/17 36/60/17 37/61/17 38/62/17 39/63/17 

f 39/63/18 38/62/18 37/61/18 36/60/18 35/59/18 

g Mesh7 Component1_1 Component1 Model

v 725.785 8802.99 10.8899
v 725.785 8750.34 -61.5806
v 725.785 8665.15 -33.8994
v 725.785 8665.15 55.6791
v 725.785 8750.34 83.3604
f 40/59/17 41/60/17 42/61/17 43/62/17 44/63/17 

f 44/63/18 43/62/18 42/61/18 41/60/18 40/59/18 

g Mesh8 Component1_1 Component1 Model

usemtl _auto_1
v 1181.14 8726.79 -116.11
vt 0 1.37904
vn 0 1 0
v 1181.14 8726.79 137.89
vt -10 1.37904
v 1258.5 8726.79 137.89
vt -10 -1.66667
v 1258.5 8726.79 -116.11
vt 0 -1.66667
f 45/64/19 46/65/19 47/66/19 48/67/19 

vn -0 -1 -0
f 48/67/20 47/66/20 46/65/20 45/64/20 

g Mesh9 Component1_1 Component1 Model

usemtl _auto_
v 515.619 8802.99 10.8899
v 515.619 8750.34 -61.5806
v 515.619 8665.15 -33.8994
v 515.619 8665.15 55.6791
v 515.619 8750.34 83.3604
f 49/59/17 50/60/17 51/61/17 52/62/17 53/63/17 

f 53/63/18 52/62/18 51/61/18 50/60/18 49/59/18 

g Mesh10 Component1_1 Component1 Model

v 865.895 8802.99 10.8899
v 865.895 8750.34 -61.5806
v 865.895 8665.15 -33.8994
v 865.895 8665.15 55.6791
v 865.895 8750.34 83.3604
f 54/59/17 55/60/17 56/61/17 57/62/17 58/63/17 

f 58/63/18 57/62/18 56/61/18 55/60/18 54/59/18 

g Mesh11 Component1_1 Component1 Model

v 445.564 8802.99 10.8899
v 445.564 8750.34 -61.5806
v 445.564 8665.15 -33.8994
v 445.564 8665.15 55.6791
v 445.564 8750.34 83.3604
f 59/59/17 60/60/17 61/61/17 62/62/17 63/63/17 

f 63/63/18 62/62/18 61/61/18 60/60/18 59/59/18 

g Mesh12 Component1_1 Component1 Model

v 655.729 8802.99 10.8899
v 655.729 8750.34 -61.5806
v 655.729 8665.15 -33.8994
v 655.729 8665.15 55.6791
v 655.729 8750.34 83.3604
f 64/59/17 65/60/17 66/61/17 67/62/17 68/63/17 

f 68/63/18 67/62/18 66/61/18 65/60/18 64/59/18 

g Mesh13 Component1_1 Component1 Model

v 1076.06 8802.99 10.8899
v 1076.06 8750.34 -61.5806
v 1076.06 8665.15 -33.8994
v 1076.06 8665.15 55.6791
v 1076.06 8750.34 83.3604
f 69/59/17 70/60/17 71/61/17 72/62/17 73/63/17 

f 73/63/18 72/62/18 71/61/18 70/60/18 69/59/18 

g Mesh14 Component1_2 Component1 Model

v 570.225 11002.8 10.8899
v 570.225 10950.1 -61.5806
v 570.225 10865 -33.8994
v 570.225 10865 55.6791
v 570.225 10950.1 83.3604
f 74/59/17 75/60/17 76/61/17 77/62/17 78/63/17 

f 78/63/18 77/62/18 76/61/18 75/60/18 74/59/18 

g Mesh15 Component1_2 Component1 Model

v 920.501 11002.8 10.8899
v 920.501 10950.1 -61.5806
v 920.501 10865 -33.8994
v 920.501 10865 55.6791
v 920.501 10950.1 83.3604
f 79/59/17 80/60/17 81/61/17 82/62/17 83/63/17 

f 83/63/18 82/62/18 81/61/18 80/60/18 79/59/18 

g Mesh16 Component1_2 Component1 Model

v 990.556 11002.8 10.8899
v 990.556 10950.1 -61.5806
v 990.556 10865 -33.8994
v 990.556 10865 55.6791
v 990.556 10950.1 83.3604
f 84/59/17 85/60/17 86/61/17 87/62/17 88/63/17 

f 88/63/18 87/62/18 86/61/18 85/60/18 84/59/18 

g Mesh17 Component1_2 Component1 Model

v 780.39 11002.8 10.8899
v 780.39 10950.1 -61.5806
v 780.39 10865 -33.8994
v 780.39 10865 55.6791
v 780.39 10950.1 83.3604
f 89/59/17 90/60/17 91/61/17 92/62/17 93/63/17 

f 93/63/18 92/62/18 91/61/18 90/60/18 89/59/18 

g Mesh18 Component1_2 Component1 Model

v 360.059 11002.8 10.8899
v 360.059 10950.1 -61.5806
v 360.059 10865 -33.8994
v 360.059 10865 55.6791
v 360.059 10950.1 83.3604
f 94/59/17 95/60/17 96/61/17 97/62/17 98/63/17 

f 98/63/18 97/62/18 96/61/18 95/60/18 94/59/18 

g Mesh19 Component1_2 Component1 Model

v 710.335 11002.8 10.8899
v 710.335 10950.1 -61.5806
v 710.335 10865 -33.8994
v 710.335 10865 55.6791
v 710.335 10950.1 83.3604
f 99/59/17 100/60/17 101/61/17 102/62/17 103/63/17 

f 103/63/18 102/62/18 101/61/18 100/60/18 99/59/18 

g Mesh20 Component1_2 Component1 Model

usemtl _auto_1
v 1165.69 10926.6 -116.11
v 1165.69 10926.6 137.89
v 1243.06 10926.6 137.89
v 1243.06 10926.6 -116.11
f 104/64/19 105/65/19 106/66/19 107/67/19 

f 107/67/20 106/66/20 105/65/20 104/64/20 

g Mesh21 Component1_2 Component1 Model

usemtl _auto_
v 500.169 11002.8 10.8899
v 500.169 10950.1 -61.5806
v 500.169 10865 -33.8994
v 500.169 10865 55.6791
v 500.169 10950.1 83.3604
f 108/59/17 109/60/17 110/61/17 111/62/17 112/63/17 

f 112/63/18 111/62/18 110/61/18 109/60/18 108/59/18 

g Mesh22 Component1_2 Component1 Model

v 850.446 11002.8 10.8899
v 850.446 10950.1 -61.5806
v 850.446 10865 -33.8994
v 850.446 10865 55.6791
v 850.446 10950.1 83.3604
f 113/59/17 114/60/17 115/61/17 116/62/17 117/63/17 

f 117/63/18 116/62/18 115/61/18 114/60/18 113/59/18 

g Mesh23 Component1_2 Component1 Model

v 430.114 11002.8 10.8899
v 430.114 10950.1 -61.5806
v 430.114 10865 -33.8994
v 430.114 10865 55.6791
v 430.114 10950.1 83.3604
f 118/59/17 119/60/17 120/61/17 121/62/17 122/63/17 

f 122/63/18 121/62/18 120/61/18 119/60/18 118/59/18 

g Mesh24 Component1_2 Component1 Model

v 640.28 11002.8 10.8899
v 640.28 10950.1 -61.5806
v 640.28 10865 -33.8994
v 640.28 10865 55.6791
v 640.28 10950.1 83.3604
f 123/59/17 124/60/17 125/61/17 126/62/17 127/63/17 

f 127/63/18 126/62/18 125/61/18 124/60/18 123/59/18 

g Mesh25 Component1_2 Component1 Model

v 1060.61 11002.8 10.8899
v 1060.61 10950.1 -61.5806
v 1060.61 10865 -33.8994
v 1060.61 10865 55.6791
v 1060.61 10950.1 83.3604
f 128/59/17 129/60/17 130/61/17 131/62/17 132/63/17 

f 132/63/18 131/62/18 130/61/18 129/60/18 128/59/18 

g Mesh26 Component5_1 Model

usemtl _auto_1
v 74.1623 6551.82 16.1029
vt 1.84956 2.30025
vn 0.937145 0.170416 0.304497
v 99.5368 6551.82 -61.9917
vt 5.08238 2.30025
v 89.5721 6602.62 -59.7545
vt 4.87738 4.32994
v 68.0038 6602.62 6.62595
vt 2.12949 4.32994
f 133/68/21 134/69/21 135/70/21 136/71/21 

vn -0.937145 -0.170416 -0.304497
f 136/71/22 135/70/22 134/69/22 133/68/22 

vt 2.12949 2.26994
vn 0.796186 0.546959 0.258697
vt 4.87738 2.26994
v 61.3388 6640.72 -53.4157
vt 4.29655 4.06171
v 50.5547 6640.72 -20.2255
vt 2.9226 4.06172
f 136/72/23 135/73/23 137/74/23 138/75/23 

vn -0.796186 -0.546959 -0.258697
f 138/75/24 137/74/24 135/73/24 136/72/24 

v 33.1055 6640.72 -73.9285
vt 2.61541 4.11429
v 33.1055 6640.72 -20.2255
vt 2.61541 2
vt 3.30238 2
vt 3.72695 3.3067
f 139/76/1 140/77/1 138/78/1 137/79/1 

v 4.87223 6640.72 -53.4157
vt 1.50386 3.3067
v 15.6564 6640.72 -20.2255
vt 1.92843 2
f 141/80/1 142/81/1 140/77/1 139/76/1 

v -1.79276 6602.62 6.62595
vt -0.513078 4.99095
vn -0.796186 0.546959 0.258696
vt -1.3062 6.78272
vt -2.68014 6.78272
v -23.3611 6602.62 -59.7545
vt -3.26097 4.99095
f 143/82/25 142/83/25 141/84/25 144/85/25 

vn 0.796186 -0.546959 -0.258696
f 144/85/26 141/84/26 142/83/26 143/82/26 

vt -4.53423 4.75943
vn -0.510618 0.495311 -0.702806
v 33.1055 6602.62 -100.78
vt -5.1556 3.03275
vt -2.4077 3.03275
vt -3.16028 4.75943
f 139/86/27 145/87/27 144/88/27 141/89/27 

vt -1.07154 3.23655
vn 0.510618 0.495311 -0.702806
vt -1.82411 1.50987
vt 0.923785 1.50987
vt 0.302411 3.23655
f 137/90/28 135/91/28 145/92/28 139/93/28 

vn -0.510618 -0.495311 0.702806
f 139/93/29 145/92/29 135/91/29 137/90/29 

vn 0.510618 -0.495311 0.702806
f 141/89/30 144/88/30 145/87/30 139/86/30 

vt -5.1556 4.54906
vn -0.581203 0.149236 -0.799957
v 33.1055 6551.82 -110.257
vt -5.37491 2.52641
v -33.3258 6551.82 -61.9917
vt -2.14209 2.52641
vt -2.4077 4.54906
f 145/94/31 146/95/31 147/96/31 144/97/31 

vt -1.82411 4.09022
vn 0.581203 0.149236 -0.799957
vt -2.08973 2.06757
vt 1.14309 2.06757
vt 0.923785 4.09022
f 135/98/32 134/99/32 146/100/32 145/101/32 

vn -0.581203 -0.149236 0.799957
f 145/101/33 146/100/33 134/99/33 135/98/33 

vn 0.581203 -0.149236 0.799957
f 144/97/34 147/96/34 146/95/34 145/94/34 

v -7.95127 6551.82 16.1029
vt -0.233154 3.14803
vn -0.937145 0.170416 0.304497
vt -0.513078 5.17772
vt -3.26097 5.17772
vt -3.46597 3.14803
f 148/102/35 143/103/35 144/104/35 147/105/35 

vn 0.937145 -0.170416 -0.304497
f 147/105/36 144/104/36 143/103/36 148/102/36 

vt 1.24146 5.08811
vn 2.4624e-18 0.183391 0.98304
vt 0.998996 3.05361
vt 4.23182 3.05361
vt 3.98935 5.08811
f 143/106/37 148/107/37 133/108/37 136/109/37 

vn -2.4624e-18 -0.183391 -0.98304
f 136/109/38 133/108/38 148/107/38 143/106/38 

usemtl _auto_4
vt -4.23182 0.569746
vn 0 -1 -0
vt -0.998996 0.569746
vt 0 3.64434
vt -2.61541 5.54454
vt -5.23081 3.64434
f 133/110/39 148/111/39 147/112/39 146/113/39 134/114/39 

vn -0 1 0
f 134/114/40 146/113/40 147/112/40 148/111/40 133/110/40 

usemtl _auto_1
vt 1.92843 6.46524
vn -7.87489e-18 0.576072 0.817399
vt 1.24146 4.63015
vt 3.98935 4.63015
vt 3.30238 6.46524
f 142/115/41 143/116/41 136/117/41 138/118/41 

vn 7.87489e-18 -0.576072 -0.817399
f 138/118/42 136/117/42 143/116/42 142/115/42 

f 139/76/2 140/77/2 142/81/2 141/80/2 

f 137/79/2 138/78/2 140/77/2 139/76/2 

usemtl _auto_4
v 33.1055 6640.72 -124.728
vt 6.11429 6.5
vn 1 0 -0
v 33.1055 6678.82 -124.728
vt 6.11429 8
v 33.1055 6678.82 30.5745
vt 0 8
v 33.1055 6640.72 30.5745
vt 0 6.5
vt 2 6.5
vt 4.11429 6.5
f 149/119/43 150/120/43 151/121/43 152/122/43 140/123/43 139/124/43 

vn -1 -0 0
f 139/124/44 140/123/44 152/122/44 151/121/44 150/120/44 149/119/44 

g Mesh27 Model

v 75.3702 6259.72 -29.6119
vt -2.96733 1.16582
v -15.0387 6259.72 -29.6119
vt 0.592076 1.16582
v -15.0387 6259.72 -40.4069
vt 0.592076 1.59082
v 75.3702 6259.72 -40.4069
vt -2.96733 1.59082
f 153/125/39 154/126/39 155/127/39 156/128/39 

f 156/128/40 155/127/40 154/126/40 153/125/40 

vt 0.592076 246.446
vn 0 0 -1
v -15.0387 6475.62 -40.4069
vt 0.592076 254.946
v 75.3702 6475.62 -40.4069
vt -2.96733 254.946
vt -2.96733 246.446
f 155/129/45 157/130/45 158/131/45 156/132/45 

vt -1.59082 246.446
vt -1.16582 246.446
v -15.0387 6475.62 -29.6119
vt -1.16582 254.946
vt -1.59082 254.946
f 155/133/17 154/134/17 159/135/17 157/136/17 

f 157/136/18 159/135/18 154/134/18 155/133/18 

vt -0.592076 1.59082
vt -0.592076 1.16582
v 75.3702 6475.62 -29.6119
vt 2.96733 1.16582
vt 2.96733 1.59082
f 157/137/1 159/138/1 160/139/1 158/140/1 

f 158/140/2 160/139/2 159/138/2 157/137/2 

vt 1.59082 254.946
vt 1.16582 254.946
vt 1.16582 246.446
vt 1.59082 246.446
f 158/141/43 160/142/43 153/143/43 156/144/43 

f 156/144/44 153/143/44 160/142/44 158/141/44 

vn -0 -0 1
f 156/132/46 158/131/46 157/130/46 155/129/46 

