<svg width="364" height="364" xmlns="http://www.w3.org/2000/svg" xmlns:xlink="http://www.w3.org/1999/xlink" xml:space="preserve" overflow="hidden"><defs><clipPath id="clip0"><rect x="1523" y="973" width="364" height="364"/></clipPath></defs><g clip-path="url(#clip0)" transform="translate(-1523 -973)"><path d="M1523 1155C1523 1054.48 1604.48 973 1705 973 1805.52 973 1887 1054.48 1887 1155 1887 1255.52 1805.52 1337 1705 1337 1604.48 1337 1523 1255.52 1523 1155Z" fill="#0070C0" fill-rule="evenodd"/><rect x="1604" y="1220" width="45" height="78" fill="#FFFFFF"/><rect x="1568" y="1183" width="274" height="30.0002" fill="#FFFFFF"/><rect x="1662" y="1122" width="83.9999" height="55" fill="#FFFFFF"/><path d="M1745.64 1112.81 1662.28 1113 1640 1103.98C1640 1096.14 1640 1089.84 1640 1082L1640 1082 1766 1082 1766 1082C1765.93 1089.26 1765.87 1096.53 1765.8 1103.79L1745.64 1112.81Z" fill="#FFFFFF" fill-rule="evenodd"/><path d="M1574 1038.04C1582.45 1037.89 1591.75 1038.19 1600.2 1038.04 1607.81 1037.88 1599.35 1050.67 1606.96 1050.51 1637.53 1050.95 1774.02 1051.77 1807.26 1050.06L1808.11 1038 1836 1038.04 1836 1076 1574 1076 1574 1038.04Z" fill="#00B050" fill-rule="evenodd"/><rect x="1682" y="1220" width="45" height="78" fill="#FFFFFF"/><rect x="1758" y="1220" width="45" height="78" fill="#FFFFFF"/></g></svg>