<svg width="364" height="364" xmlns="http://www.w3.org/2000/svg" xmlns:xlink="http://www.w3.org/1999/xlink" xml:space="preserve" overflow="hidden"><defs><clipPath id="clip0"><rect x="1427" y="1348" width="364" height="364"/></clipPath></defs><g clip-path="url(#clip0)" transform="translate(-1427 -1348)"><path d="M1427 1530C1427 1429.48 1508.48 1348 1609 1348 1709.52 1348 1791 1429.48 1791 1530 1791 1630.52 1709.52 1712 1609 1712 1508.48 1712 1427 1630.52 1427 1530Z" fill="#0070C0" fill-rule="evenodd"/><rect x="1508" y="1608" width="44" height="61.9999" fill="#00B050"/><rect x="1498" y="1580" width="65" height="25.0001" fill="#FFFFFF"/><rect x="1471" y="1547" width="275" height="31.0002" fill="#FFFFFF"/><rect x="1566" y="1490" width="83.9999" height="54" fill="#FFFFFF"/><path d="M1649.64 1486.81 1566.28 1487 1544 1478.27C1544 1470.69 1544 1464.59 1544 1457L1544 1457 1670 1457 1670 1457C1669.93 1464.03 1669.87 1471.06 1669.8 1478.09L1649.64 1486.81Z" fill="#FFFFFF" fill-rule="evenodd"/><path d="M1478 1416.04C1486.42 1415.89 1495.68 1416.19 1504.1 1416.04 1511.68 1415.88 1503.26 1428.67 1510.84 1428.51 1541.29 1428.95 1677.26 1429.77 1710.37 1428.06L1711.22 1416 1739 1416.04 1739 1454 1478 1454 1478 1416.04Z" fill="#FFFFFF" fill-rule="evenodd"/><rect x="1586" y="1608" width="44" height="61.9999" fill="#00B050"/><rect x="1576" y="1580" width="65" height="25.0001" fill="#FFFFFF"/><rect x="1662" y="1608" width="44" height="61.9999" fill="#00B050"/><rect x="1652" y="1580" width="65" height="25.0001" fill="#FFFFFF"/></g></svg>