<svg width="365" height="365" xmlns="http://www.w3.org/2000/svg" xmlns:xlink="http://www.w3.org/1999/xlink" xml:space="preserve" overflow="hidden"><defs><clipPath id="clip0"><rect x="1079" y="1605" width="365" height="365"/></clipPath></defs><g clip-path="url(#clip0)" transform="translate(-1079 -1605)"><path d="M1079 1787.5C1079 1686.71 1160.71 1605 1261.5 1605 1362.29 1605 1444 1686.71 1444 1787.5 1444 1888.29 1362.29 1970 1261.5 1970 1160.71 1970 1079 1888.29 1079 1787.5Z" fill="#0070C0" fill-rule="evenodd"/><rect x="1161" y="1852" width="44" height="78" fill="#FFFFFF"/><rect x="1124" y="1815" width="275" height="30.9999" fill="#FFFFFF"/><rect x="1219" y="1755" width="84.0002" height="54.0004" fill="#00B050"/><path d="M1302.64 1744.81 1219.28 1745 1197 1736.27C1197 1728.69 1197 1722.59 1197 1715L1197 1715 1323 1715 1323 1715C1322.93 1722.03 1322.87 1729.06 1322.8 1736.09L1302.64 1744.81Z" fill="#FFFFFF" fill-rule="evenodd"/><path d="M1131 1670.04C1139.42 1669.89 1148.68 1670.19 1157.1 1670.04 1164.68 1669.88 1156.26 1682.67 1163.84 1682.51 1194.29 1682.95 1330.26 1683.77 1363.37 1682.06L1364.22 1670 1392 1670.04 1392 1708 1131 1708 1131 1670.04Z" fill="#FFFFFF" fill-rule="evenodd"/><rect x="1238" y="1852" width="45" height="78" fill="#FFFFFF"/><rect x="1315" y="1852" width="44" height="78" fill="#FFFFFF"/></g></svg>