<svg width="364" height="364" xmlns="http://www.w3.org/2000/svg" xmlns:xlink="http://www.w3.org/1999/xlink" xml:space="preserve" overflow="hidden"><defs><clipPath id="clip0"><rect x="1626" y="1781" width="364" height="364"/></clipPath></defs><g clip-path="url(#clip0)" transform="translate(-1626 -1781)"><path d="M1626 1963C1626 1862.48 1707.48 1781 1808 1781 1908.52 1781 1990 1862.48 1990 1963 1990 2063.52 1908.52 2145 1808 2145 1707.48 2145 1626 2063.52 1626 1963Z" fill="#0070C0" fill-rule="evenodd"/><rect x="1707" y="2027" width="45" height="78.0001" fill="#00B050"/><rect x="1671" y="1990" width="274" height="30.9999" fill="#FFFFFF"/><rect x="1765" y="1930" width="83.9999" height="54" fill="#FFFFFF"/><path d="M1848.8 1919.81 1766.1 1920 1744 1911.27C1744 1903.69 1744 1897.59 1744 1890L1744 1890 1869 1890 1869 1890C1868.93 1897.03 1868.87 1904.06 1868.8 1911.09L1848.8 1919.81Z" fill="#FFFFFF" fill-rule="evenodd"/><path d="M1677 1845.04C1685.45 1844.89 1694.75 1845.19 1703.2 1845.04 1710.81 1844.87 1702.35 1858 1709.96 1857.84 1740.53 1858.29 1877.02 1859.14 1910.26 1857.38L1911.11 1845 1939 1845.04 1939 1884 1677 1884 1677 1845.04Z" fill="#FFFFFF" fill-rule="evenodd"/><rect x="1785" y="2027" width="45" height="78.0001" fill="#00B050"/><rect x="1861" y="2027" width="45" height="78.0001" fill="#00B050"/></g></svg>