<svg width="365" height="365" xmlns="http://www.w3.org/2000/svg" xmlns:xlink="http://www.w3.org/1999/xlink" xml:space="preserve" overflow="hidden"><defs><clipPath id="clip0"><rect x="1873" y="622" width="365" height="365"/></clipPath></defs><g clip-path="url(#clip0)" transform="translate(-1873 -622)"><path d="M1873 804.5C1873 703.708 1954.71 622 2055.5 622 2156.29 622 2238 703.708 2238 804.5 2238 905.292 2156.29 987 2055.5 987 1954.71 987 1873 905.292 1873 804.5Z" fill="#0070C0" fill-rule="evenodd"/><rect x="1955" y="869" width="44" height="78" fill="#FFFFFF"/><rect x="1918" y="832" width="275" height="31.0003" fill="#FFFFFF"/><rect x="2013" y="772" width="83.9998" height="53.9999" fill="#FFFFFF"/><path d="M2096.64 761.808 2013.28 762 1991 752.982C1991 745.142 1991 738.841 1991 731L1991 731 2117 731 2117 731C2116.93 738.264 2116.87 745.528 2116.8 752.792L2096.64 761.808Z" fill="#FFFFFF" fill-rule="evenodd"/><path d="M1925 687.044C1933.42 686.895 1942.68 687.19 1951.1 687.041 1958.68 686.878 1950.26 699.67 1957.84 699.508 1988.29 699.948 2124.26 700.774 2157.37 699.061L2158.22 687 2186 687.044 2186 725 1925 725 1925 687.044Z" fill="#FFFFFF" fill-rule="evenodd"/><rect x="2032" y="869" width="45.0001" height="78" fill="#FFFFFF"/><rect x="2109" y="869" width="44" height="78" fill="#FFFFFF"/></g></svg>