<svg width="365" height="364" xmlns="http://www.w3.org/2000/svg" xmlns:xlink="http://www.w3.org/1999/xlink" xml:space="preserve" overflow="hidden"><defs><clipPath id="clip0"><rect x="1973" y="1234" width="365" height="364"/></clipPath></defs><g clip-path="url(#clip0)" transform="translate(-1973 -1234)"><path d="M1973 1416C1973 1315.48 2054.71 1234 2155.5 1234 2256.29 1234 2338 1315.48 2338 1416 2338 1516.52 2256.29 1598 2155.5 1598 2054.71 1598 1973 1516.52 1973 1416Z" fill="#0070C0" fill-rule="evenodd"/><rect x="2054" y="1481" width="45" height="78" fill="#FFFFFF"/><rect x="2018" y="1444" width="275" height="29.9999" fill="#FFFFFF"/><rect x="2112" y="1383" width="85" height="55" fill="#FFFFFF"/><path d="M2196.64 1373.81 2113.28 1374 2091 1364.98C2091 1357.14 2091 1350.84 2091 1343L2091 1343 2217 1343 2217 1343C2216.93 1350.26 2216.87 1357.53 2216.8 1364.79L2196.64 1373.81Z" fill="#00B050" fill-rule="evenodd"/><path d="M2025 1299.04C2033.42 1298.89 2042.68 1299.19 2051.1 1299.04 2058.68 1298.88 2050.26 1311.67 2057.84 1311.51 2088.29 1311.95 2224.26 1312.77 2257.37 1311.06L2258.22 1299 2286 1299.04 2286 1337 2025 1337 2025 1299.04Z" fill="#FFFFFF" fill-rule="evenodd"/><rect x="2132" y="1481" width="45" height="78" fill="#FFFFFF"/><rect x="2208" y="1481" width="45" height="78" fill="#FFFFFF"/></g></svg>