<svg width="364" height="365" xmlns="http://www.w3.org/2000/svg" xmlns:xlink="http://www.w3.org/1999/xlink" xml:space="preserve" overflow="hidden"><defs><clipPath id="clip0"><rect x="1609" y="1330" width="364" height="365"/></clipPath></defs><g clip-path="url(#clip0)" transform="translate(-1609 -1330)"><path d="M1609 1512.5C1609 1411.71 1690.48 1330 1791 1330 1891.52 1330 1973 1411.71 1973 1512.5 1973 1613.29 1891.52 1695 1791 1695 1690.48 1695 1609 1613.29 1609 1512.5Z" fill="#0070C0" fill-rule="evenodd"/><rect x="1690" y="1577" width="45" height="78" fill="#FFFFFF"/><rect x="1654" y="1540" width="274" height="30.9999" fill="#00B050"/><rect x="1748" y="1480" width="83.9999" height="54.0004" fill="#FFFFFF"/><path d="M1831.64 1469.81 1748.28 1470 1726 1461.27C1726 1453.69 1726 1447.59 1726 1440L1726 1440 1852 1440 1852 1440C1851.93 1447.03 1851.87 1454.06 1851.8 1461.09L1831.64 1469.81Z" fill="#FFFFFF" fill-rule="evenodd"/><path d="M1660 1395.04C1668.45 1394.89 1677.75 1395.19 1686.2 1395.04 1693.81 1394.88 1685.35 1407.67 1692.96 1407.51 1723.53 1407.95 1860.02 1408.77 1893.26 1407.06L1894.11 1395 1922 1395.04 1922 1433 1660 1433 1660 1395.04Z" fill="#FFFFFF" fill-rule="evenodd"/><rect x="1768" y="1577" width="44" height="78" fill="#FFFFFF"/><rect x="1844" y="1577" width="45" height="78" fill="#FFFFFF"/></g></svg>