<svg width="343" height="343" xmlns="http://www.w3.org/2000/svg" xmlns:xlink="http://www.w3.org/1999/xlink" xml:space="preserve" overflow="hidden"><defs><clipPath id="clip0"><rect x="391" y="837" width="343" height="343"/></clipPath></defs><g clip-path="url(#clip0)" transform="translate(-391 -837)"><path d="M391 1008.5C391 913.783 467.785 837 562.5 837 657.215 837 734 913.783 734 1008.5 734 1103.22 657.215 1180 562.5 1180 467.785 1180 391 1103.22 391 1008.5Z" stroke="#404040" stroke-width="0.939874" fill="#0070C0" fill-rule="evenodd"/><path d="M468.057 1069.11 509.405 1069.11 509.405 1142.41 468.057 1142.41Z" stroke="#404040" stroke-width="0.939874" fill="#FFFFFF"/><path d="M433.288 1034.34 691.712 1034.34 691.712 1063.47 433.288 1063.47Z" stroke="#404040" stroke-width="0.939874" fill="#FFFFFF"/><path d="M522.562 977.959 601.498 977.959 601.498 1028.7 522.562 1028.7Z" stroke="#404040" stroke-width="0.939874" fill="#FFFFFF"/><path d="M601.16 968.381 522.825 968.562 501.888 960.087C501.888 952.72 501.888 946.799 501.888 939.43L501.888 939.43 620.293 939.43 620.293 939.43C620.227 946.256 620.171 953.083 620.105 959.909L601.16 968.381Z" stroke="#404040" stroke-width="0.939874" fill="#FFFFFF" fill-rule="evenodd"/><path d="M439.866 898.124C447.778 897.984 456.48 898.261 464.393 898.121 471.516 897.968 463.603 909.989 470.726 909.836 499.341 910.25 627.116 911.026 658.23 909.416L659.029 898.082 685.134 898.124 685.134 933.792 439.866 933.792 439.866 898.124Z" stroke="#404040" stroke-width="0.939874" fill="#FFFFFF" fill-rule="evenodd"/><path d="M540.416 1069.11 582.704 1069.11 582.704 1142.41 540.416 1142.41Z" stroke="#404040" stroke-width="0.939874" fill="#FFFFFF"/><path d="M612.775 1069.11 654.123 1069.11 654.123 1142.41 612.775 1142.41Z" stroke="#404040" stroke-width="0.939874" fill="#FFFFFF"/><g><g><g><path d="M682.775 938.45 541.975 1071.55 474.325 1002.25 450.95 1024.53 540.875 1116.93 564.525 1094.93 705.05 961.55Z" fill="#00B050"/></g></g></g></g></svg>