<svg width="96" height="96" xmlns="http://www.w3.org/2000/svg" xmlns:xlink="http://www.w3.org/1999/xlink" xml:space="preserve" overflow="hidden"><defs><clipPath id="clip0"><rect x="0" y="0" width="96" height="96"/></clipPath></defs><g clip-path="url(#clip0)"><path d="M33 41.5 30.5 39 29.4 41.7C27.4 41.9 25.9 43.6 25.9 45.6L25.9 56.2C25.9 57.7 27.1 58.8 28.5 58.8L29.8 58.8 29.8 63.4C29.8 64.9 31 66 32.4 66L33.7 66C35.1 66 36.3 64.8 36.3 63.4L36.3 58.8 50.3 58.8 33 41.5 33 41.5ZM34.9 49.5 31 49.5C30.3 49.5 29.7 48.9 29.7 48.2L29.7 46.9C29.7 46.2 30.3 45.6 31 45.6L34.9 45.6C35.6 45.6 36.2 46.2 36.2 46.9L36.2 48.2C36.2 48.9 35.7 49.5 34.9 49.5Z" stroke="#D0CECE" stroke-opacity="0.89804" fill="#FF0000"/><path d="M40.5 32 58.4 32C58.8 32 59.1 32.2 59.2 32.6L63.1 41.6 50 41.6 67.2 58.8 67.6 58.8C69.1 58.8 70.2 57.6 70.2 56.2L70.2 45.5C70.2 43.5 68.7 41.8 66.7 41.6L62.4 31.3C61.8 29.7 60.2 28.6 58.5 28.6L37.6 28.6C37.5 28.6 37.3 28.6 37.2 28.6L40.5 32ZM66.3 46.8 66.3 48.1C66.3 48.8 65.7 49.4 65 49.4L61.1 49.4C60.4 49.4 59.8 48.8 59.8 48.1L59.8 46.8C59.8 46.1 60.4 45.5 61.1 45.5L65 45.5C65.7 45.5 66.3 46.1 66.3 46.8Z" stroke="#D0CECE" stroke-opacity="0.89804" fill="#FF0000"/><path d="M48 10C27 10 10 27 10 48 10 69 27 86 48 86 69 86 86 69 86 48 86 48 86 48 86 48 86 27 69 10 48 10 48 10 48 10 48 10ZM78 48C78 54.6 75.8 61 71.8 66.2L29.8 24.2C43 14.1 61.8 16.7 71.8 29.8 75.8 35 78 41.4 78 48ZM18 48C18 41.4 20.2 35 24.2 29.8L66.2 71.8C53.1 81.9 34.2 79.4 24.2 66.2 20.2 61 18 54.6 18 48L18 48Z" stroke="#D0CECE" stroke-opacity="0.89804" fill="#FF0000"/></g></svg>