<svg width="348" height="324" xmlns="http://www.w3.org/2000/svg" xmlns:xlink="http://www.w3.org/1999/xlink" xml:space="preserve" overflow="hidden"><defs><clipPath id="clip0"><rect x="1397" y="496" width="348" height="324"/></clipPath><clipPath id="clip1"><rect x="1425" y="511" width="295" height="292"/></clipPath><clipPath id="clip2"><rect x="1425" y="511" width="295" height="292"/></clipPath><clipPath id="clip3"><rect x="1425" y="511" width="295" height="292"/></clipPath></defs><g clip-path="url(#clip0)" transform="translate(-1397 -496)"><path d="M1411 658C1411 576.262 1482.63 510 1571 510 1659.37 510 1731 576.262 1731 658 1731 739.738 1659.37 806 1571 806 1482.63 806 1411 739.738 1411 658Z" stroke="#50A5E7" stroke-width="27.5" stroke-miterlimit="8" fill="none" fill-rule="evenodd"/><g clip-path="url(#clip1)"><g clip-path="url(#clip2)"><g clip-path="url(#clip3)"><path d="M196.187 156.646 215.958 176.417 235.729 156.646 255.5 176.417 279.833 146 255.5 115.583 132.312 115.583C121.362 95.5083 100.375 82.125 76.0416 82.125 40.7583 82.125 12.1667 110.717 12.1667 146 12.1667 181.283 40.7583 209.875 76.0416 209.875 100.375 209.875 121.362 196.492 132.312 176.417L152.083 176.417 164.25 164.25 176.417 176.417 196.187 156.646ZM48.6666 164.25C38.6291 164.25 30.4166 156.037 30.4166 146 30.4166 135.962 38.6291 127.75 48.6666 127.75 58.7041 127.75 66.9166 135.962 66.9166 146 66.9166 156.037 58.7041 164.25 48.6666 164.25Z" fill="#50A5E7" transform="matrix(1.00343 0 0 1 1426 511)"/></g></g></g></g></svg>