<svg width="167" height="167" xmlns="http://www.w3.org/2000/svg" xmlns:xlink="http://www.w3.org/1999/xlink" xml:space="preserve" overflow="hidden"><defs><clipPath id="clip0"><rect x="0" y="0" width="167" height="167"/></clipPath></defs><g clip-path="url(#clip0)"><path d="M83.5 20.875 83.4965 20.875 10.4375 90.3766 18.3352 97.1262 83.4965 35.2266 83.5 35.2266 148.661 97.1262 156.559 90.3766 83.5 20.875Z" fill="#6D8C98"/><path d="M83.5 44.8221 31.3125 94.4002 31.3125 146.125 96.5469 146.125 96.5469 121.597 83.5 121.597C81.5785 121.597 80.0208 120.039 80.0208 118.118L80.0208 98.2865C80.0208 96.3649 81.5785 94.8073 83.5 94.8073L96.5469 94.8073 96.5469 92.1979C96.5469 90.7569 97.7152 89.5885 99.1562 89.5885 100.597 89.5885 101.766 90.7569 101.766 92.1979L101.766 94.8073 114.812 94.8073C116.734 94.8073 118.292 96.3649 118.292 98.2865L118.292 118.118C118.292 120.039 116.734 121.597 114.812 121.597L101.766 121.597 101.766 146.125 135.688 146.125 135.688 94.3968Z" fill="#6D8C98"/></g></svg>