<svg width="48" height="49" xmlns="http://www.w3.org/2000/svg" xmlns:xlink="http://www.w3.org/1999/xlink" xml:space="preserve" overflow="hidden"><defs><clipPath id="clip0"><rect x="148" y="404" width="48" height="49"/></clipPath></defs><g clip-path="url(#clip0)" transform="translate(-148 -404)"><path d="M34 15.1C32.8 15.1 31.8 14.1 31.85 12.85 31.85 11.65 32.85 10.65 34.05 10.65 35.25 10.65 36.25 11.65 36.25 12.85 36.25 13.45 36 14 35.6 14.4 35.15 14.85 34.6 15.1 34 15.1ZM31.85 8.15C30.75 8.55 29.9 9.4 29.35 10.4 28.65 11.75 28.55 13.3 29.1 14.7L31.5 19.9 33.1 23.2C33.25 23.55 33.6 23.75 34 23.75 34.4 23.75 34.75 23.55 34.9 23.2L36.5 19.9 38.9 14.75C39.15 14.15 39.25 13.5 39.25 12.85 39.25 9.35 35.65 6.7 31.85 8.15Z" fill="#002060" transform="matrix(1 0 0 1.02083 148 404)"/><path d="M23 36.4 15 32.4 15 16.1 23 20.1 23 36.4ZM13 32.4 7 35.4 7 19.1 13 16.1 13 32.4ZM40.7 15.6 40.7 15.6 39.45 18.3 41 19.1 41 35.4 35 32.4 35 25.75 33 25.75 33 32.4 25 36.4 25 20.1 28.55 18.3 27.3 15.6 24 17.25 14 12.25 4 17.25 4 40.25 14 35.25 24 40.25 34 35.25 44 40.25 44 17.25 40.7 15.6Z" fill="#002060" transform="matrix(1 0 0 1.02083 148 404)"/></g></svg>