<svg width="96" height="96" xmlns="http://www.w3.org/2000/svg" xmlns:xlink="http://www.w3.org/1999/xlink" xml:space="preserve" overflow="hidden"><defs><clipPath id="clip0"><rect x="0" y="0" width="96" height="96"/></clipPath></defs><g clip-path="url(#clip0)"><path d="M39 15C39 18.866 35.866 22 32 22 28.134 22 25 18.866 25 15 25 11.134 28.134 8 32 8 35.866 8 39 11.134 39 15Z" fill="#50A5E7"/><path d="M71 15C71 18.866 67.866 22 64 22 60.134 22 57 18.866 57 15 57 11.134 60.134 8 64 8 67.866 8 71 11.134 71 15Z" fill="#50A5E7"/><path d="M82.9 52.1 77.2 31C77 30.4 76.7 29.8 76.3 29.4 74.4 27.4 72 25.9 69.4 25 67.7 24.3 65.9 24 64 24 62.1 24 60.3 24.3 58.6 24.9 55.9 25.8 53.6 27.3 51.7 29.3 51.3 29.8 51 30.3 50.8 30.9L48 41.4 45.2 31C45 30.4 44.7 29.8 44.3 29.4 42.4 27.4 40 25.9 37.4 25 35.7 24.3 33.9 24 32 24 30.1 24 28.3 24.3 26.6 24.9 23.9 25.8 21.6 27.3 19.7 29.3 19.3 29.8 19 30.3 18.8 30.9L13.2 52C12.8 53.6 13.6 55.4 15.3 55.8 15.5 56 15.7 56 16 56 17.3 56 18.5 55.1 18.9 53.8L24 34.6 24 57 24 88 30 88 30 57 34 57 34 88 40 88 40 57 40 34.6 45.1 53.7C45.5 55 46.7 55.9 48 55.9 48.3 55.9 48.5 55.9 48.8 55.8 49.7 55.5 50.4 54.8 50.7 54 50.8 54 56 34.6 56 34.6L56 42.7 50.3 64 56 64 56 88 62 88 62 64 66 64 66 88 72 88 72 64 77.7 64 72 42.7 72 34.6 77.1 53.7C77.5 55 78.7 55.9 80 55.9 80.3 55.9 80.5 55.9 80.8 55.8 82.4 55.4 83.3 53.7 82.9 52.1Z" fill="#50A5E7"/></g></svg>