<svg width="260" height="259" xmlns="http://www.w3.org/2000/svg" xmlns:xlink="http://www.w3.org/1999/xlink" xml:space="preserve" overflow="hidden"><defs><clipPath id="clip0"><rect x="849" y="1310" width="260" height="259"/></clipPath><clipPath id="clip1"><rect x="865" y="1320" width="231" height="230"/></clipPath><clipPath id="clip2"><rect x="865" y="1320" width="231" height="230"/></clipPath><clipPath id="clip3"><rect x="865" y="1320" width="231" height="230"/></clipPath></defs><g clip-path="url(#clip0)" transform="translate(-849 -1310)"><path d="M849 1439.5C849 1367.98 907.203 1310 979 1310 1050.8 1310 1109 1367.98 1109 1439.5 1109 1511.02 1050.8 1569 979 1569 907.203 1569 849 1511.02 849 1439.5Z" fill="#0070C0" fill-rule="evenodd"/><g clip-path="url(#clip1)"><g clip-path="url(#clip2)"><g clip-path="url(#clip3)"><path d="M1055.27 1406.25C1057.92 1406.25 1060.06 1404.1 1060.06 1401.46L1060.06 1389.48C1060.06 1387.6 1058.96 1385.89 1057.25 1385.12L1004.55 1361.16C1004.18 1361 1003.8 1360.89 1003.41 1360.82L1002.53 1353.01C1002.44 1352.21 1002.16 1351.45 1001.7 1350.79L984.927 1326.84C983.41 1324.67 980.422 1324.14 978.254 1325.65 977.794 1325.98 977.395 1326.38 977.073 1326.84L960.302 1350.79C959.844 1351.45 959.557 1352.21 959.469 1353.01L958.589 1360.82C958.198 1360.88 957.817 1361 957.454 1361.16L904.745 1385.12C903.035 1385.89 901.937 1387.6 901.937 1389.48L901.937 1401.46C901.937 1404.1 904.083 1406.25 906.729 1406.25 909.375 1406.25 911.521 1404.1 911.521 1401.46L911.521 1394.27 954.84 1394.27 952.379 1416.18 904.755 1437.82C903.041 1438.6 901.939 1440.31 901.937 1442.19L901.937 1454.17C901.937 1456.81 904.083 1458.96 906.729 1458.96 909.375 1458.96 911.521 1456.81 911.521 1454.17L911.521 1446.98 948.917 1446.98 947.571 1458.98 915.886 1538.26C914.904 1540.72 916.099 1543.51 918.556 1544.49 919.734 1544.96 921.049 1544.94 922.216 1544.45L980.882 1519.43 1039.9 1544.62C1042.33 1545.66 1045.15 1544.53 1046.19 1542.09 1046.69 1540.93 1046.7 1539.61 1046.23 1538.43L1014.45 1458.98 1013.1 1446.98 1050.48 1446.98 1050.48 1454.17C1050.48 1456.81 1052.62 1458.96 1055.27 1458.96 1057.92 1458.96 1060.06 1456.81 1060.06 1454.17L1060.06 1442.19C1060.06 1440.31 1058.96 1438.6 1057.25 1437.82L1009.64 1416.18 1007.18 1394.27 1050.48 1394.27 1050.48 1401.46C1050.48 1404.1 1052.62 1406.25 1055.27 1406.25ZM967.176 1370.31 994.843 1370.31 996.458 1384.69 965.552 1384.69ZM981 1337.94 993.144 1355.29 993.765 1360.73 968.252 1360.73 968.865 1355.29ZM928.859 1384.69 957.37 1371.73 955.918 1384.69ZM1002.38 1437.4 959.639 1437.4 961.253 1423.02 1000.77 1423.02ZM928.859 1437.4 951.141 1427.27 949.995 1437.4ZM1007.59 1467.66 1014.18 1484.11 992.591 1474.41ZM1014.4 1494.72 980.882 1509.01 947.396 1494.72 980.902 1479.66ZM947.889 1483.99 954.38 1467.74 969.205 1474.41ZM929.058 1531.11 940.594 1502.24 968.664 1514.22ZM993.089 1514.22 1021.4 1502.16 1033.04 1531.27ZM1004.74 1458.44 980.894 1469.16 957.257 1458.53 958.56 1446.98 1003.46 1446.98ZM1033.16 1437.4 1012.02 1437.4 1010.89 1427.27ZM999.687 1413.44 962.329 1413.44 964.485 1394.27 997.531 1394.27ZM1004.64 1371.73 1033.16 1384.69 1006.1 1384.69Z" fill="#FFFFFF"/></g></g></g></g></svg>