<svg width="330" height="330" xmlns="http://www.w3.org/2000/svg" xmlns:xlink="http://www.w3.org/1999/xlink" xml:space="preserve" overflow="hidden"><g transform="translate(-980 -626)"><path d="M1004 787C1004 709.128 1070.04 646 1151.5 646 1232.96 646 1299 709.128 1299 787 1299 864.872 1232.96 928 1151.5 928 1070.04 928 1004 864.872 1004 787Z" fill="#00B050" fill-rule="evenodd"/><g><g><g><path d="M1173.72 789.146C1167.55 783.896 1159.55 781.435 1151.97 779.065L1151.97 734.987C1159.33 735.687 1166.21 738.959 1171.4 744.229L1180.15 735.844C1172.66 728.227 1162.63 723.638 1151.97 722.956L1151.97 707.115 1141.03 707.115 1141.03 723.649C1137.29 724.378 1133.67 725.668 1130.31 727.477 1116.49 735.005 1109.44 752.688 1115.11 767.581 1119.5 779.065 1130.09 784.188 1141.03 788.034L1141.03 835.758C1132.55 834.719 1125.52 829.852 1119.69 823.781L1110.94 832.149C1115.1 836.876 1120.07 840.832 1125.61 843.833 1130.45 846.137 1135.68 847.516 1141.03 847.899L1141.03 863.886 1151.97 863.886 1151.97 847.479C1164.51 845.383 1176.03 837.672 1180.99 825.604 1185.95 813.537 1184.14 798.06 1173.72 789.146ZM1131.92 770.425C1121.89 761.966 1124.33 745.597 1134.96 738.815 1136.84 737.607 1138.89 736.668 1141.03 736.026L1141.03 775.565C1137.73 774.365 1134.65 772.628 1131.92 770.425ZM1164.89 828.43C1161.34 831.908 1156.85 834.282 1151.97 835.266L1151.97 791.716C1159.26 794.214 1167.63 797.386 1170.6 805.151 1173.57 812.917 1170.58 822.633 1164.89 828.43Z" fill="#FFFFFF"/></g></g></g><path d="M1135.44 876.284C1092.32 869.184 1060.72 831.847 1060.85 788.147 1060.92 782.734 1061.47 777.339 1062.5 772.025L1062.78 772.025 1069.07 782.922C1070.96 786.216 1075.17 787.347 1078.47 785.448 1081.76 783.55 1082.89 779.341 1080.99 776.047L1066.38 750.781C1065.47 749.208 1063.98 748.058 1062.23 747.584 1060.46 747.11 1058.58 747.358 1057 748.272L1031.56 762.95C1028.2 764.71 1026.9 768.864 1028.66 772.228 1030.42 775.593 1034.57 776.893 1037.94 775.133 1038.11 775.044 1038.27 774.948 1038.44 774.844L1048.96 768.759C1047.73 775.15 1047.11 781.641 1047.1 788.147 1046.94 838.525 1083.34 881.586 1133.04 889.828L1134.21 889.828C1138 890.132 1141.33 887.3 1141.63 883.503 1141.94 879.706 1139.1 876.382 1135.31 876.078Z" fill="#FFFFFF"/><path d="M1253.35 788.147C1253.36 775.863 1251.19 763.676 1246.92 752.156 1245.59 748.597 1241.63 746.788 1238.07 748.117 1234.51 749.446 1232.7 753.409 1234.03 756.969 1251.24 803.231 1227.69 854.687 1181.43 871.9 1181.1 872.023 1180.77 872.143 1180.44 872.262L1180.44 872.262 1186.7 861.331C1188.6 858.028 1187.46 853.811 1184.15 851.912 1180.85 850.014 1176.63 851.153 1174.73 854.456L1160.3 879.791C1158.41 883.084 1159.55 887.286 1162.84 889.175 1162.84 889.175 1162.84 889.175 1162.84 889.175L1188.18 903.647C1191.48 905.545 1195.7 904.406 1197.59 901.103 1199.49 897.8 1198.35 893.583 1195.05 891.684L1184.33 885.6C1225.8 871.212 1253.54 832.047 1253.35 788.147Z" fill="#FFFFFF"/><path d="M1194.91 719.294C1191.12 719.294 1188.04 722.372 1188.04 726.169 1188.04 729.966 1191.12 733.044 1194.91 733.044L1223.17 733.044C1223.43 733.061 1223.7 733.061 1223.96 733.044 1225.28 733.044 1226.58 732.649 1227.67 731.909L1228.15 731.6 1228.36 731.428 1228.36 731.428 1228.81 731.084C1230.15 729.801 1230.92 728.028 1230.94 726.169L1230.94 697.019C1230.94 693.222 1227.86 690.144 1224.06 690.144 1220.27 690.144 1217.19 693.222 1217.19 697.019L1217.19 709.566 1217.19 709.566C1173.84 672.626 1108.75 677.823 1071.81 721.173 1071.65 721.359 1071.49 721.547 1071.33 721.734 1068.89 724.639 1069.25 728.979 1072.16 731.428 1075.06 733.877 1079.4 733.508 1081.85 730.603 1113.42 693.001 1169.41 687.905 1207.25 719.191Z" fill="#FFFFFF"/></g></svg>