<svg width="271" height="273" xmlns="http://www.w3.org/2000/svg" xmlns:xlink="http://www.w3.org/1999/xlink" xml:space="preserve" overflow="hidden"><defs><clipPath id="clip0"><rect x="1406" y="684" width="271" height="273"/></clipPath><clipPath id="clip1"><rect x="1409" y="684" width="269" height="268"/></clipPath><clipPath id="clip2"><rect x="1409" y="684" width="269" height="268"/></clipPath><clipPath id="clip3"><rect x="1409" y="684" width="269" height="268"/></clipPath></defs><g clip-path="url(#clip0)" transform="translate(-1406 -684)"><path d="M1406 827.5C1406 755.979 1464.2 698 1536 698 1607.8 698 1666 755.979 1666 827.5 1666 899.021 1607.8 957 1536 957 1464.2 957 1406 899.021 1406 827.5Z" fill="#0070C0" fill-rule="evenodd"/><g clip-path="url(#clip1)"><g clip-path="url(#clip2)"><g clip-path="url(#clip3)"><path d="M153.558 86.5416 140.158 86.5416 134.017 78.8645 134.017 55.8333 161.933 55.8333 161.933 39.0833 140.158 39.0833 131.225 27.9166 108.892 27.9166 99.9583 39.0833 78.1834 39.0833 78.1834 55.8333 106.1 55.8333 106.1 78.8645 99.9583 86.5416 44.6834 86.5416 44.6834 131.208 153.558 131.208C167.428 131.224 178.668 142.463 178.683 156.333L178.683 161.917 223.35 161.917 223.35 156.333C223.307 117.806 192.085 86.5846 153.558 86.5416Z" fill="#FFFFFF" transform="matrix(1 0 0 1 1409 684)"/><path d="M182.452 220.776C182.325 231.293 190.747 239.923 201.265 240.05 211.782 240.177 220.411 231.754 220.539 221.237 220.541 221.083 220.541 220.93 220.539 220.776 220.541 208.518 201.497 181.458 201.497 181.458 201.497 181.458 182.452 208.596 182.452 220.776Z" fill="#FFFFFF" transform="matrix(1 0 0 1 1409 684)"/></g></g></g></g></svg>