<svg width="131" height="131" xmlns="http://www.w3.org/2000/svg" xmlns:xlink="http://www.w3.org/1999/xlink" xml:space="preserve" overflow="hidden"><defs><clipPath id="clip0"><rect x="0" y="0" width="131" height="131"/></clipPath></defs><g clip-path="url(#clip0)"><path d="M95.3175 119.337 72.3693 64.2596 73.551 64.2596C75.812 64.2596 77.6448 62.4268 77.6448 60.1658L77.6448 45.6399 72.3297 45.6399 72.3297 40.1815 77.7881 40.1815 77.7881 25.9394C77.7879 24.12 77.5452 22.3086 77.0662 20.5534L74.5172 11.2046C74.0317 9.42351 72.4141 8.18773 70.5681 8.1875L60.451 8.1875C58.6019 8.18405 56.9801 9.42058 56.4938 11.2046L53.9447 20.5534C53.4657 22.3086 53.223 24.12 53.2228 25.9394L53.2228 40.1815 58.6812 40.1815 58.6812 45.6399 53.2228 45.6399 53.2228 60.1658C53.2228 62.4268 55.0556 64.2596 57.3166 64.2596L58.6416 64.2596 35.6961 119.337C35.0954 120.719 35.7292 122.327 37.1116 122.928 38.4939 123.528 40.1016 122.895 40.7022 121.512 40.7133 121.487 40.7239 121.461 40.7342 121.436L52.6729 92.7917 62.7804 92.7917 62.7804 112.806C62.7804 114.313 64.0022 115.535 65.5096 115.535 67.0169 115.535 68.2387 114.313 68.2387 112.806L68.2387 92.7917 78.3462 92.7917 90.2822 121.436C90.8406 122.836 92.4283 123.518 93.8282 122.959 95.2283 122.401 95.9106 120.814 95.3522 119.413 95.3419 119.388 95.3313 119.362 95.3202 119.337ZM65.5068 16.375C67.7678 16.375 69.6006 18.2078 69.6006 20.4688 69.6006 22.7297 67.7678 24.5625 65.5068 24.5625 63.2458 24.5625 61.4131 22.7297 61.4131 20.4688 61.4131 18.2078 63.2458 16.375 65.5068 16.375ZM54.9436 87.3333 62.7777 68.5335 62.7777 87.3333ZM68.236 87.3333 68.236 68.5307 76.0701 87.3333Z" fill="#FFC000"/></g></svg>