<svg width="260" height="259" xmlns="http://www.w3.org/2000/svg" xmlns:xlink="http://www.w3.org/1999/xlink" xml:space="preserve" overflow="hidden"><defs><clipPath id="clip0"><rect x="938" y="918" width="260" height="259"/></clipPath><clipPath id="clip1"><rect x="962" y="938" width="210" height="211"/></clipPath><clipPath id="clip2"><rect x="962" y="938" width="210" height="211"/></clipPath><clipPath id="clip3"><rect x="962" y="938" width="210" height="211"/></clipPath></defs><g clip-path="url(#clip0)" transform="translate(-938 -918)"><path d="M938 1047.5C938 975.979 996.203 918 1068 918 1139.8 918 1198 975.979 1198 1047.5 1198 1119.02 1139.8 1177 1068 1177 996.203 1177 938 1119.02 938 1047.5Z" fill="#0070C0" fill-rule="evenodd"/><g clip-path="url(#clip1)"><g clip-path="url(#clip2)"><g clip-path="url(#clip3)"><path d="M87.4999 76.5624 93.6249 70.4374C86.9132 63.4798 86.9132 52.4575 93.6249 45.4999L87.4999 39.3749C77.2899 49.6684 77.2899 66.2689 87.4999 76.5624Z" fill="#FFFFFF" transform="matrix(1 0 0 1 962 938)"/><path d="M75.2499 88.8124 81.3749 82.6874C67.7231 69.1223 67.6529 47.0585 81.218 33.4068 81.2701 33.3543 81.3224 33.302 81.3749 33.25L75.2499 27.125C58.2154 43.9188 58.0203 71.3419 74.8139 88.3764 74.9583 88.5227 75.1035 88.668 75.2499 88.8124Z" fill="#FFFFFF" transform="matrix(1 0 0 1 962 938)"/><path d="M68.9061 95.1561C48.4861 74.5694 48.4861 41.368 68.9061 20.7812L62.7812 14.6562C38.8604 38.5745 38.8585 77.3558 62.7768 101.277 62.7783 101.278 62.7796 101.28 62.7812 101.281Z" fill="#FFFFFF" transform="matrix(1 0 0 1 962 938)"/><path d="M124.687 76.5624C134.897 66.2689 134.897 49.6684 124.687 39.3749L118.562 45.4999C121.833 48.8203 123.644 53.3082 123.594 57.9687 123.601 62.6208 121.797 67.0931 118.562 70.4374Z" fill="#FFFFFF" transform="matrix(1 0 0 1 962 938)"/><path d="M130.812 82.6874 136.937 88.8124C153.972 72.0185 154.167 44.5954 137.373 27.5609 137.229 27.4146 137.084 27.2693 136.937 27.125L130.812 33.25C144.464 46.8151 144.534 68.8788 130.969 82.5305 130.917 82.583 130.865 82.6353 130.812 82.6874Z" fill="#FFFFFF" transform="matrix(1 0 0 1 962 938)"/><path d="M143.281 95.1561 149.406 101.281C173.327 77.3628 173.329 38.5815 149.41 14.6606 149.409 14.6592 149.408 14.6577 149.406 14.6562L143.281 20.7812C163.701 41.368 163.701 74.5694 143.281 95.1561Z" fill="#FFFFFF" transform="matrix(1 0 0 1 962 938)"/><path d="M172.812 189.678 172.812 189.678C172.745 189.289 172.62 188.913 172.44 188.562 172.44 188.562 172.44 188.562 172.44 188.431L110.097 67.0249C109.907 66.669 109.663 66.3444 109.375 66.0624 113.855 64.2503 116.017 59.1495 114.205 54.6697 112.393 50.1899 107.292 48.0274 102.812 49.8395 98.3326 51.6516 96.17 56.7524 97.9821 61.2322 98.8713 63.4302 100.614 65.1732 102.812 66.0624 102.579 66.3194 102.38 66.6064 102.222 66.9155L39.8781 188.322C39.8781 188.322 39.8781 188.322 39.8781 188.453 39.6989 188.804 39.5736 189.18 39.5062 189.568L39.5062 189.568C39.4517 189.931 39.4517 190.3 39.5062 190.662 39.5062 190.662 39.5062 190.837 39.5062 190.925 39.5657 191.279 39.6685 191.624 39.8124 191.953 39.8124 191.953 39.8124 191.953 39.8124 191.953 39.8124 191.953 40.0312 192.259 40.1187 192.434 40.2519 192.654 40.398 192.866 40.5562 193.068L40.5562 193.068C40.6675 193.163 40.7843 193.25 40.9062 193.331 41.0952 193.51 41.3002 193.671 41.5187 193.812 41.6895 193.901 41.8647 193.982 42.0437 194.053L42.6999 194.293 43.2687 194.293 43.7499 194.687 44.0562 194.687 44.3406 194.687C44.7413 194.65 45.1331 194.546 45.4999 194.381L106.137 167.715 166.687 194.315C167.237 194.566 167.834 194.692 168.437 194.687L168.437 194.687C168.799 194.681 169.16 194.629 169.509 194.534L169.815 194.534C170.093 194.429 170.364 194.304 170.625 194.162L170.822 194.031C171.108 193.851 171.372 193.638 171.609 193.397L171.609 193.397C171.78 193.183 171.933 192.956 172.068 192.718 172.164 192.578 172.252 192.431 172.331 192.281 172.331 192.281 172.331 192.281 172.331 192.281 172.479 191.946 172.582 191.593 172.637 191.231 172.637 191.231 172.637 191.078 172.637 190.99 172.775 190.567 172.834 190.122 172.812 189.678ZM135.625 135.975 113.531 121.034 124.184 113.75ZM106.094 78.4874 120.159 105.853 105.765 115.762 92.6405 107.012C92.3557 106.814 92.047 106.652 91.7217 106.531ZM87.7624 114.165 98.0217 121.1 76.5624 135.822ZM53.2655 181.365 68.7093 151.265 95.2436 162.925ZM77.7436 145.687 105.809 126.372 134.422 145.731 106.137 158.156ZM152.119 178.368 117.009 162.947 143.5 151.309 158.922 181.343Z" fill="#FFFFFF" transform="matrix(1 0 0 1 962 938)"/></g></g></g></g></svg>