<svg width="96" height="96" xmlns="http://www.w3.org/2000/svg" xmlns:xlink="http://www.w3.org/1999/xlink" xml:space="preserve" overflow="hidden"><defs><clipPath id="clip0"><rect x="0" y="0" width="96" height="96"/></clipPath></defs><g clip-path="url(#clip0)"><path d="M80.006 30C80.006 20.611 65.679 13 48.006 13 30.333 13 16.006 20.611 16.006 30L16.006 57.825C16.0059 61.5127 13.6463 64.7866 10.148 65.953L6.56 67.153C5.16792 67.5839 4.16701 68.8036 4.016 70.253 3.87241 72.1735 5.31284 73.8467 7.23329 73.9903 7.31971 73.9968 7.40634 74 7.493 74L13.826 74C13.878 73.975 14.539 73.938 15.291 73.905 16.8225 73.8355 18.3304 73.5016 19.748 72.918L22.867 71.634C27.1866 69.8563 30.0061 65.6471 30.006 60.976L30.006 44.056C31.2773 44.516 32.6107 44.927 34.006 45.289L34.006 60.975C34.0064 67.2669 30.2092 72.9368 24.391 75.332L19.091 77.514C17.3705 78.2238 16.5511 80.194 17.2609 81.9145 17.8306 83.2954 19.2413 84.1365 20.727 83.981L22.971 83.745C31.5893 82.838 39.9742 80.3879 47.725 76.512L49.281 75.734C50.9499 74.9001 52.0041 73.1946 52.004 71.329L52.004 46.863C53.365 46.773 54.704 46.642 56.004 46.463L56.004 71.329C56.004 71.5403 55.9963 71.75 55.981 71.958 55.9246 73.0279 56.7462 73.941 57.8162 73.9975 57.8584 73.9997 57.9007 74.0005 57.943 74L88.373 74C90.052 74.031 91.5281 72.8935 91.926 71.262 92.308 69.5207 91.3163 67.7714 89.626 67.205L85.868 65.953C82.3697 64.7866 80.0101 61.5127 80.01 57.825L80.01 30ZM47.506 19C59.206 19 71.006 22.4 71.006 30 71.006 37.6 59.206 41 47.506 41 35.806 41 24.006 37.6 24.006 30 24.006 22.4 35.809 19 47.506 19Z" fill="#548235"/><path d="M47.506 37C58.275 37 67.006 33.866 67.006 30 67.006 26.134 58.275 23 47.506 23 36.737 23 28.006 26.134 28.006 30 28.006 33.866 36.736 37 47.506 37ZM47.506 28C53.306 28 58.006 28.9 58.006 30 58.006 31.1 53.306 32 47.506 32 41.706 32 37.006 31.105 37.006 30 37.006 28.895 41.707 28 47.506 28Z" fill="#548235"/></g></svg>