<svg width="263" height="262" xmlns="http://www.w3.org/2000/svg" xmlns:xlink="http://www.w3.org/1999/xlink" xml:space="preserve" overflow="hidden"><defs><clipPath id="clip0"><rect x="564" y="567" width="263" height="262"/></clipPath><clipPath id="clip1"><rect x="566" y="566" width="262" height="262"/></clipPath><clipPath id="clip2"><rect x="566" y="566" width="262" height="262"/></clipPath><clipPath id="clip3"><rect x="566" y="566" width="262" height="262"/></clipPath></defs><g clip-path="url(#clip0)" transform="translate(-564 -567)"><path d="M564 699C564 627.203 621.979 569 693.5 569 765.021 569 823 627.203 823 699 823 770.797 765.021 829 693.5 829 621.979 829 564 770.797 564 699Z" fill="#0070C0" fill-rule="evenodd"/><g clip-path="url(#clip1)"><g clip-path="url(#clip2)"><g clip-path="url(#clip3)"><path d="M697 594.083C697 594.083 629.292 689.417 629.292 732.208 629.292 769.583 659.625 799.917 697 799.917 734.375 799.917 764.708 769.583 764.708 732.208 764.708 689.146 697 594.083 697 594.083Z" fill="#FFFFFF"/></g></g></g></g></svg>