<svg width="81" height="81" xmlns="http://www.w3.org/2000/svg" xmlns:xlink="http://www.w3.org/1999/xlink" xml:space="preserve" overflow="hidden"><g><path d="M71.6344 61.2225C69.9761 60.58 68.2225 60.2178 66.4453 60.1509 64.6681 60.2178 62.9146 60.58 61.2562 61.2225 60.1519 61.6668 58.9845 61.9345 57.7969 62.0156L57.7969 62.0156C56.6093 61.9345 55.4419 61.6668 54.3375 61.2225 52.6792 60.58 50.9256 60.2178 49.1484 60.1509 47.3712 60.2178 45.6177 60.58 43.9594 61.2225 42.855 61.6668 41.6876 61.9345 40.5 62.0156 39.3124 61.9345 38.145 61.6668 37.0406 61.2225 35.3823 60.58 33.6288 60.2178 31.8516 60.1509 30.0744 60.2178 28.3208 60.58 26.6625 61.2225 25.5581 61.6668 24.3907 61.9345 23.2031 62.0156 22.0155 61.9345 20.8481 61.6668 19.7437 61.2225 18.0854 60.58 16.3319 60.2178 14.5547 60.1509 12.7775 60.2178 11.0239 60.58 9.36563 61.2225 8.26127 61.6668 7.09385 61.9345 5.90625 62.0156L5.90625 67.0781C7.6834 67.0112 9.43701 66.6491 11.0953 66.0066 12.1969 65.5452 13.3644 65.2604 14.5547 65.1628 15.745 65.2604 16.9125 65.5452 18.0141 66.0066 19.6724 66.6491 21.4259 67.0112 23.2031 67.0781 24.9803 67.0112 26.7339 66.6491 28.3922 66.0066 29.4938 65.5452 30.6613 65.2604 31.8516 65.1628 33.0391 65.244 34.2066 65.5116 35.3109 65.9559 36.9651 66.6195 38.7194 66.9989 40.5 67.0781 42.2772 67.0112 44.0308 66.6491 45.6891 66.0066 46.7907 65.5452 47.9582 65.2604 49.1484 65.1628 50.3387 65.2604 51.5062 65.5452 52.6078 66.0066 54.2661 66.6491 56.0197 67.0112 57.7969 67.0781 59.5741 67.0112 61.3276 66.6491 62.9859 66.0066 64.0875 65.5452 65.255 65.2604 66.4453 65.1628 67.6329 65.244 68.8003 65.5116 69.9047 65.9559 71.5589 66.6195 73.3132 66.9989 75.0938 67.0781L75.0938 62.0156C73.9062 61.9345 72.7388 61.6668 71.6344 61.2225Z" fill="#A9A9A9" fill-opacity="0.487259"/><path d="M71.6344 71.3475C69.9761 70.705 68.2225 70.3428 66.4453 70.2759 64.6681 70.3428 62.9146 70.705 61.2562 71.3475 60.1519 71.7918 58.9845 72.0595 57.7969 72.1406L57.7969 72.1406C56.6093 72.0595 55.4419 71.7918 54.3375 71.3475 52.6792 70.705 50.9256 70.3428 49.1484 70.2759 47.3712 70.3428 45.6177 70.705 43.9594 71.3475 42.855 71.7918 41.6876 72.0595 40.5 72.1406 39.3124 72.0595 38.145 71.7918 37.0406 71.3475 35.3823 70.705 33.6288 70.3428 31.8516 70.2759 30.0744 70.3428 28.3208 70.705 26.6625 71.3475 25.5581 71.7918 24.3907 72.0595 23.2031 72.1406 22.0155 72.0595 20.8481 71.7918 19.7437 71.3475 18.0854 70.705 16.3319 70.3428 14.5547 70.2759 12.7775 70.3428 11.0239 70.705 9.36563 71.3475 8.26127 71.7918 7.09385 72.0595 5.90625 72.1406L5.90625 77.2031C7.6834 77.1362 9.43701 76.7741 11.0953 76.1316 12.1969 75.6702 13.3644 75.3854 14.5547 75.2878 15.745 75.3854 16.9125 75.6702 18.0141 76.1316 19.6724 76.7741 21.4259 77.1362 23.2031 77.2031 24.9803 77.1362 26.7339 76.7741 28.3922 76.1316 29.4938 75.6702 30.6613 75.3854 31.8516 75.2878 33.0391 75.369 34.2066 75.6366 35.3109 76.0809 36.9651 76.7445 38.7194 77.1239 40.5 77.2031 42.2772 77.1362 44.0308 76.7741 45.6891 76.1316 46.7907 75.6702 47.9582 75.3854 49.1484 75.2878 50.3387 75.3854 51.5062 75.6702 52.6078 76.1316 54.2661 76.7741 56.0197 77.1362 57.7969 77.2031 59.5741 77.1362 61.3276 76.7741 62.9859 76.1316 64.0875 75.6702 65.255 75.3854 66.4453 75.2878 67.6329 75.369 68.8003 75.6366 69.9047 76.0809 71.5589 76.7445 73.3132 77.1239 75.0938 77.2031L75.0938 72.1406C73.9062 72.0595 72.7388 71.7918 71.6344 71.3475Z" fill="#A9A9A9" fill-opacity="0.487259"/><path d="M75.0938 33.1172 75.0938 29.7422C66.7322 29.7422 59.1131 23.6503 59.0625 16.9425L59.0625 16.875 55.6875 16.875 55.6875 16.9425C55.6369 23.4225 47.25 29.7084 40.5 29.7084 33.75 29.7084 25.3631 23.4225 25.3125 16.9425L25.3125 16.875 21.9375 16.875 21.9375 16.9425C21.8869 23.6925 14.2678 29.7422 5.90625 29.7422L5.90625 33.1172C6.75246 33.1147 7.59775 33.0612 8.4375 32.9569L8.4375 39.6562 5.90625 39.6562 5.90625 46.4062 21.0938 46.4062 21.0938 56.43C21.8506 56.6501 22.6282 56.7915 23.4141 56.8519 24.3474 56.7842 25.2686 56.5999 26.1562 56.3034L26.1562 46.4062 54.8438 46.4062 54.8438 56.5312C55.5997 56.7554 56.3776 56.8968 57.1641 56.9531 58.0974 56.8855 59.0186 56.7012 59.9062 56.4047L59.9062 46.4062 75.0938 46.4062 75.0938 39.6562 72.5625 39.6562 72.5625 32.9569C73.4023 33.0612 74.2476 33.1147 75.0938 33.1172ZM15.1875 39.6562 11.8125 39.6562 11.8125 32.2734C12.9713 31.9409 14.1002 31.512 15.1875 30.9909ZM21.0938 39.6562 18.5625 39.6562 18.5625 28.9575C19.4695 28.2839 20.3164 27.533 21.0938 26.7131ZM28.6875 39.6562 26.1562 39.6562 26.1562 26.7131C26.934 27.53 27.7809 28.2781 28.6875 28.9491ZM48.9375 30.9825 48.9375 39.6562 45.5625 39.6562 45.5625 32.265C46.7213 31.9325 47.8502 31.5035 48.9375 30.9825ZM42.1875 32.9484 42.1875 39.6984 38.8125 39.6984 38.8125 32.9484C39.3694 33.0159 39.9347 33.0666 40.5 33.0919 41.0653 33.1172 41.6306 33.0159 42.1875 32.9484ZM32.0625 30.9825C33.1499 31.5007 34.2789 31.9269 35.4375 32.2566L35.4375 39.6562 32.0625 39.6562ZM52.3125 39.6562 52.3125 28.9491C53.2191 28.2781 54.066 27.53 54.8438 26.7131L54.8438 39.6562ZM59.9062 26.7131C60.6836 27.533 61.5305 28.2839 62.4375 28.9575L62.4375 39.6562 59.9062 39.6562ZM69.1875 39.6562 65.8125 39.6562 65.8125 30.9909C66.8998 31.512 68.0287 31.9409 69.1875 32.2734Z" fill="#A9A9A9" fill-opacity="0.487259"/></g></svg>