# Alias OBJ Model File
# Exported from SketchUp, (c) 2000-2012 Trimble Navigation Limited
# File units = inches

mtllib water_meter.mtl

g Mesh1 Meter1 Model

usemtl FrontColor
v -1.21388 4.95031 3.69908
vt -2.67258 -1.19367
vn -0.00349154 -0.99998 -0.00532252
v -2.12248 4.95585 3.2553
vt -2.15628 -0.324206
v -2.88526 4.96204 2.59147
vt -1.8826 0.649258
v -3.45023 4.96848 1.75284
vt -1.8702 1.66039
v -3.77889 4.97472 0.796557
vt -2.11992 2.64027
v -3.84884 4.98033 -0.212209
vt -2.61474 3.52213
v -3.65532 4.98494 -1.20471
vt -3.32095 4.24588
v -3.21152 4.98822 -2.11332
vt -4.19041 4.76218
v -2.54767 4.98997 -2.8761
vt -5.16387 5.03586
v -1.70902 4.99004 -3.44108
vt -6.175 5.04826
v -0.752725 4.98845 -3.76975
vt -7.15489 4.79854
v 0.256051 4.98531 -3.83973
vt -8.03675 4.30372
v 1.24856 4.98081 -3.64622
vt -8.76049 3.59752
v 2.15716 4.97528 -3.20244
vt -9.2768 2.72805
v 2.91994 4.96908 -2.53861
vt -9.55048 1.75459
v 3.48491 4.96264 -1.69998
vt -9.56288 0.743461
v 3.81357 4.9564 -0.743697
vt -9.31316 -0.236424
v 3.88352 4.95079 0.265069
vt -8.81834 -1.11829
v 3.69 4.94618 1.25757
vt -8.11213 -1.84203
v 3.24619 4.9429 2.16617
vt -7.24267 -2.35834
v 2.58235 4.94116 2.92896
vt -6.2692 -2.63202
v 1.7437 4.94108 3.49394
vt -5.25808 -2.64442
v 0.7874 4.94267 3.82261
vt -4.27819 -2.3947
v -0.221375 4.94582 3.89258
vt -3.39633 -1.89987
f 1/1/1 2/2/1 3/3/1 4/4/1 5/5/1 6/6/1 7/7/1 8/8/1 9/9/1 10/10/1 11/11/1 12/12/1 13/13/1 14/14/1 15/15/1 16/16/1 17/17/1 18/18/1 19/19/1 20/20/1 21/21/1 22/22/1 23/23/1 24/24/1 

usemtl water_meter
vt 0.432477 -0.919275
vn 0.00349154 0.99998 0.00532252
vt 0.541303 -0.911198
vt 0.644435 -0.873743
vt 0.734844 -0.809463
vt 0.806371 -0.722738
vt 0.854139 -0.619479
vt 0.874895 -0.506722
vt 0.867222 -0.392152
vt 0.831645 -0.283576
vt 0.770588 -0.188394
vt 0.688212 -0.113092
vt 0.59013 -0.0628019
vt 0.483027 -0.0409508
vt 0.374201 -0.049028
vt 0.271069 -0.0864829
vt 0.180659 -0.150763
vt 0.109133 -0.237488
vt 0.0613642 -0.340747
vt 0.0406088 -0.453504
vt 0.048281 -0.568074
vt 0.0838579 -0.67665
vt 0.144915 -0.771832
vt 0.227292 -0.847134
vt 0.325374 -0.897424
f 24/25/2 23/26/2 22/27/2 21/28/2 20/29/2 19/30/2 18/31/2 17/32/2 16/33/2 15/34/2 14/35/2 13/36/2 12/37/2 11/38/2 10/39/2 9/40/2 8/41/2 7/42/2 6/43/2 5/44/2 4/45/2 3/46/2 2/47/2 1/48/2 

usemtl Color_008
v -0.225734 3.69742 3.88594
vt 3.90322 3.72372
vn -0.0616261 -0.00509726 0.998086
v 0.783041 3.69427 3.81597
vt 4.91442 3.72057
vn 0.198799 -0.00591042 0.980022
vt 4.9183 4.96898
vt 3.9071 4.97213
f 25/49/3 26/50/4 23/51/4 24/52/3 

usemtl BackColor
vn 0.0616261 0.00509726 -0.998086
vn -0.198799 0.00591042 -0.980022
f 24/52/5 23/51/6 26/50/6 25/49/5 

usemtl Color_008
vt 4.74293 3.7284
v 1.73934 3.69268 3.48729
vt 5.75413 3.72682
vn 0.445677 -0.00632079 0.895172
vt 5.75609 4.97523
vt 4.74489 4.97682
f 26/53/4 27/54/7 22/55/7 23/56/4 

usemtl BackColor
vn -0.445677 0.00632079 -0.895172
f 23/56/6 22/55/8 27/54/8 26/53/6 

usemtl Color_008
vt 5.22496 3.73626
v 2.57799 3.69276 2.92231
vt 6.23616 3.73634
vn 0.662182 -0.00630041 0.749316
vt 6.23606 4.98476
vt 5.22486 4.98468
f 27/57/7 28/58/9 21/59/9 22/60/7 

usemtl BackColor
vn -0.662182 0.00630041 -0.749316
f 22/60/8 21/59/10 28/58/10 27/57/8 

usemtl Color_008
vt 5.31644 3.74502
v 3.24183 3.6945 2.15953
vt 6.32764 3.74676
vn 0.833561 -0.00585067 0.552396
vt 6.32549 4.99518
vt 5.31429 4.99344
f 28/61/9 29/62/11 20/63/11 21/64/9 

usemtl BackColor
vn -0.833561 0.00585067 -0.552396
f 21/64/10 20/63/12 29/62/12 28/61/10 

usemtl Color_008
vt 5.01115 3.75216
v 3.68564 3.69779 1.25093
vt 6.02235 3.75545
vn 0.948134 -0.00500221 0.317832
vt 6.01829 5.00386
vt 5.00709 5.00058
f 29/65/11 30/66/13 19/67/13 20/68/11 

usemtl BackColor
vn -0.948134 0.00500221 -0.317832
f 20/68/12 19/67/14 30/66/14 29/65/12 

usemtl Color_008
vt 4.3299 3.75562
v 3.87916 3.7024 0.258424
vt 5.3411 3.76023
vn 0.998093 -0.00381286 0.061607
vt 5.33541 5.00864
vt 4.32422 5.00403
f 30/69/13 31/70/15 18/71/15 19/72/13 

usemtl BackColor
vn -0.998093 0.00381286 -0.061607
f 19/72/14 18/71/16 31/70/16 30/69/14 

usemtl Color_008
vt 3.31913 3.75434
v 3.80921 3.70801 -0.750342
vt 4.33032 3.75995
vn 0.980034 -0.00236367 -0.198816
vt 4.32339 5.00835
vt 3.3122 5.00274
f 31/73/15 32/74/17 17/75/17 18/76/15 

usemtl Body
v 3.93844 3.71023 -1.25131
vt 9.69601 0.111579
vt 9.31316 -0.236424
vt 8.81834 -1.11829
f 33/77/2 32/78/2 31/79/2

v 3.48055 3.71425 -1.70662
vt 9.56288 0.743461
f 33/77/2 34/80/2 32/78/2

v 3.47572 3.71702 -2.22397
vt 9.84261 1.17869
f 35/81/2 34/80/2 33/77/2

v 2.91558 3.72068 -2.54526
vt 9.55048 1.75459
f 35/81/2 36/82/2 34/80/2

v 2.77702 3.72382 -3.04372
vt 9.70803 2.24739
f 37/83/2 36/82/2 35/81/2

v 2.1528 3.72688 -3.20908
vt 9.2768 2.72805
f 37/83/2 38/84/2 36/82/2

v 1.88995 3.73017 -3.6547
vt 9.30144 3.24484
f 39/85/2 38/84/2 37/83/2

v 1.2442 3.73242 -3.65287
vt 8.76049 3.59752
f 39/85/2 40/86/2 38/84/2

v 0.874965 3.73563 -4.01527
vt 8.65054 4.10307
f 41/87/2 40/86/2 39/85/2

v 0.251692 3.73691 -3.84637
vt 8.03675 4.30372
f 41/87/2 42/88/2 40/86/2

v -0.19876 3.73984 -4.10085
vt 7.79969 4.76359
f 43/89/2 42/88/2 41/87/2

v -0.757084 3.74006 -3.7764
vt 7.15489 4.79854
f 43/89/2 44/90/2 42/88/2

v -1.25805 3.7425 -3.90563
vt 6.80688 5.18139
f 45/91/2 44/90/2 43/89/2

v -1.71338 3.74165 -3.44772
vt 6.175 5.04826
f 45/91/2 46/92/2 44/90/2

v -2.23073 3.74343 -3.44289
vt 5.73977 5.328
f 47/93/2 46/92/2 45/91/2

v -2.55203 3.74157 -2.88274
vt 5.16387 5.03586
f 47/93/2 48/94/2 46/92/2

v -3.0505 3.74257 -2.74417
vt 4.67107 5.19342
f 49/95/2 48/94/2 47/93/2

v -3.21588 3.73983 -2.11996
vt 4.19041 4.76218
f 49/95/2 50/96/2 48/94/2

v -3.65968 3.73654 -1.21136
vt 3.32095 4.24588
f 49/95/2 51/97/2 50/96/2

v -3.6615 3.73999 -1.8571
vt 3.67362 4.78682
f 52/98/2 51/97/2 49/95/2

v -3.8532 3.73194 -0.218854
vt 2.61474 3.52213
f 52/98/2 53/99/2 51/97/2

v -4.02209 3.73584 -0.842119
vt 2.81539 4.13592
f 54/100/2 53/99/2 52/98/2

v -3.91249 3.72411 1.29088
vt 1.73707 2.29227
f 54/100/2 55/101/2 53/99/2

v -4.1077 3.73043 0.231598
vt 2.15487 3.28508
f 55/101/2 54/100/2 56/102/2

usemtl BackColor
f 56/102/1 54/100/1 55/101/1

usemtl Body
v -4.03507 0.0186765 -0.861904
vt -4.99331 0.0437224
vn -0.977929 0.00452638 -0.208889
v -4.0672 0.0166435 -0.458877
vt -4.58901 0.0416894
vn -0.996831 0.00390346 -0.0794569
v -4.12068 0.0132604 0.211813
vt -3.91619 0.0383062
vn -0.998676 0.00321375 0.0513345
vt -3.8975 3.7555
vt -4.97462 3.76092
f 57/103/18 58/104/19 59/105/20 56/106/20 54/107/18 

v 3.92547 -0.00694063 -1.2711
vt -9.69601 0.111579
v 4.0807 -0.0119662 -0.428741
vt -9.36377 -0.677915
vt -2.56746 3.81655
vt -2.81539 4.13592
v -3.67448 0.0228198 -1.87688
vt -3.67362 4.78682
v -3.06348 0.025408 -2.76396
vt -4.67107 5.19342
v -2.24371 0.0262647 -3.46267
vt -5.73977 5.328
v -1.27103 0.0253314 -3.92541
vt -6.80688 5.18139
v -0.211738 0.0226719 -4.12064
vt -7.79969 4.76359
v 0.861986 0.0184674 -4.03505
vt -8.65054 4.10307
v 1.87697 0.0130043 -3.67448
vt -9.30144 3.24484
v 2.76404 0.00665496 -3.06351
vt -9.70803 2.24739
v 3.46274 -0.000147872 -2.24376
vt -9.84261 1.17869
f 60/108/1 61/109/1 58/110/1 57/111/1 62/112/1 63/113/1 64/114/1 65/115/1 66/116/1 67/117/1 68/118/1 69/119/1 70/120/1 

usemtl BackColor
f 70/120/2 69/119/2 68/118/2 67/117/2 66/116/2 65/115/2 64/114/2 63/113/2 62/112/2 57/111/2 58/110/2 61/109/2 60/108/2 

usemtl Body
vt -0.0604174 0.0182329
vn 0.839221 -3.5838e-05 -0.543791
vt 1.0167 0.0250358
vn 0.669885 0.00161288 -0.742463
vt 0.993222 3.7422
vt -0.0838942 3.7354
f 70/121/21 69/122/22 37/123/22 35/124/21 

usemtl BackColor
vn -0.839221 3.5838e-05 0.543791
vn -0.669885 -0.00161288 0.742463
f 35/124/23 37/123/24 69/122/24 70/121/23 

f 35/81/1 36/82/1 37/83/1

f 34/80/1 36/82/1 35/81/1

usemtl Color_008
vt 0.602329 3.73977
vn 0.895187 -0.000753404 -0.44569
vt 1.61351 3.7462
vn 0.749335 0.000908209 -0.662191
vt 1.60557 4.9946
vt 0.594382 4.98816
f 34/125/25 36/126/26 15/127/26 16/128/25 

usemtl BackColor
vn -0.895187 0.000753404 0.44569
vn -0.749335 -0.000908209 0.662191
f 16/128/27 15/127/28 36/126/28 34/125/27 

usemtl Color_008
vt -0.918572 3.7303
vt 0.0926134 3.73649
vn 0.552416 0.00250793 -0.833565
vt 0.0849632 4.98489
vt -0.926222 4.97869
f 36/129/26 38/130/29 14/131/29 15/132/26 

usemtl BackColor
f 36/82/1 38/84/1 37/83/1

vn -0.552416 -0.00250793 0.833565
f 15/132/28 14/131/30 38/130/30 36/129/28 

usemtl Color_008
vt -2.41134 3.72271
vt -1.40015 3.72825
vn 0.317852 0.00393674 -0.948132
vt -1.40698 4.97665
vt -2.41817 4.97111
f 38/133/29 40/134/31 13/135/31 14/136/29 

usemtl BackColor
f 38/84/1 40/86/1 39/85/1

vn -0.317852 -0.00393674 0.948132
f 14/136/30 13/135/32 40/134/32 38/133/30 

usemtl Color_008
vt -3.77425 3.71911
vt -2.76305 3.72361
vt -2.7686 4.97202
vt -3.7798 4.96752
f 40/137/31 42/138/5 12/139/5 13/140/31 

usemtl BackColor
f 40/86/1 42/88/1 41/87/1

f 13/140/32 12/139/3 42/138/3 40/137/32 

usemtl Color_008
vt -4.91442 3.72057
vt -3.90322 3.72372
vt -3.9071 4.97213
vt -4.9183 4.96898
f 42/141/5 44/142/6 11/143/6 12/144/5 

usemtl BackColor
f 42/88/1 44/90/1 43/89/1

f 12/144/3 11/143/4 44/142/4 42/141/3 

usemtl Color_008
vt -5.75413 3.72682
vt -4.74293 3.7284
vt -4.74489 4.97682
vt -5.75609 4.97523
f 44/145/6 46/146/8 10/147/8 11/148/6 

usemtl BackColor
f 44/90/1 46/92/1 45/91/1

f 11/148/4 10/147/7 46/146/7 44/145/4 

usemtl Color_008
vt -6.23616 3.73634
vt -5.22496 3.73626
vt -5.22486 4.98468
vt -6.23606 4.98476
f 46/149/8 48/150/10 9/151/10 10/152/8 

usemtl BackColor
f 46/92/1 48/94/1 47/93/1

f 10/152/7 9/151/9 48/150/9 46/149/7 

usemtl Color_008
vt -6.32764 3.74676
vt -5.31644 3.74502
vt -5.31429 4.99344
vt -6.32549 4.99518
f 48/153/10 50/154/12 8/155/12 9/156/10 

usemtl BackColor
f 48/94/1 50/96/1 49/95/1

f 9/156/9 8/155/11 50/154/11 48/153/9 

usemtl Color_008
vt -6.02235 3.75545
vt -5.01115 3.75216
vt -5.00709 5.00058
vt -6.01829 5.00386
f 50/157/12 51/158/14 7/159/14 8/160/12 

usemtl BackColor
f 50/96/1 51/97/1 49/95/1

f 8/160/11 7/159/13 51/158/13 50/157/11 

usemtl Color_008
vt -5.3411 3.76023
vt -4.3299 3.75562
vt -4.32422 5.00403
vt -5.33541 5.00864
f 51/161/14 53/162/16 6/163/16 7/164/14 

usemtl BackColor
f 51/97/1 53/99/1 52/98/1

f 7/164/13 6/163/15 53/162/15 51/161/13 

usemtl Color_008
vt -4.33032 3.75995
v -3.78325 3.72632 0.789912
vt -3.31913 3.75434
vn -0.980034 0.00236367 0.198816
vt -3.3122 5.00274
vt -4.32339 5.00835
f 53/165/16 71/166/33 5/167/33 6/168/16 

usemtl Body
vt 2.11992 2.64027
f 55/101/2 71/169/2 53/99/2

v -3.44976 3.71731 2.26354
vt 1.59047 1.22515
f 71/169/2 55/101/2 72/170/2

usemtl BackColor
f 53/99/1 71/169/1 55/101/1

f 6/168/15 5/167/17 71/166/17 53/165/15 

usemtl Color_008
vt -3.05891 3.7548
v -3.45459 3.72009 1.7462
vt -2.04773 3.74856
vt -2.04003 4.99695
vt -3.05121 5.00319
f 71/171/33 73/172/27 4/173/27 5/174/33 

usemtl Body
vt 1.8702 1.66039
f 71/169/2 72/170/2 73/175/2

usemtl BackColor
f 72/170/1 55/101/1 71/169/1

usemtl Body
v -3.92547 0.00694063 1.2711
vt -2.5072 0.034426
vn -0.951366 0.00168211 0.308059
v -3.46274 0.000147872 2.24376
vt -1.43008 0.0276332
vt -1.40664 3.7448
vt -2.48375 3.75159
f 74/176/34 75/177/23 72/178/23 55/179/34 

usemtl BackColor
vn 0.951366 -0.00168211 -0.308059
f 55/179/35 72/178/21 75/177/21 74/176/35 

usemtl Body
vt -1.0167 0.0250358
v -2.76404 -0.00665496 3.06351
vt 0.0604174 0.0182329
v -2.75106 3.71051 3.08329
vt 0.0838942 3.7354
vt -0.993222 3.7422
f 75/180/23 76/181/24 77/182/24 72/183/23 

usemtl BackColor
f 72/183/21 77/182/22 76/181/22 75/180/21 

usemtl Body
v -2.88962 3.71365 2.58483
vt 1.8826 0.649258
vt 1.72505 0.156456
f 78/184/2 72/170/2 77/185/2

f 73/175/2 72/170/2 78/184/2

usemtl BackColor
f 73/175/1 72/170/1 71/169/1

f 78/184/1 72/170/1 73/175/1

f 77/185/1 72/170/1 78/184/1

usemtl Body
v -2.12684 3.70745 3.24865
vt 2.15628 -0.324206
f 78/184/2 77/185/2 79/186/2

usemtl BackColor
f 79/186/1 77/185/1 78/184/1

usemtl Body
v -1.86399 3.70416 3.69427
vt 2.13164 -0.840995
f 79/186/2 77/185/2 80/187/2

usemtl BackColor
f 80/187/1 77/185/1 79/186/1

usemtl Body
vt 0.506383 0.0156295
v -1.87697 -0.0130043 3.67448
vt 1.5835 0.00928016
vn -0.454897 -0.00315168 0.890539
vt 1.60541 3.72646
vt 0.528294 3.73281
f 76/188/24 81/189/36 80/190/36 77/191/24 

usemtl BackColor
vn 0.454897 0.00315168 -0.890539
f 77/191/22 80/190/37 81/189/37 76/188/22 

usemtl Body
vt 1.95827 0.00868215
v -0.861986 -0.0184674 4.03505
vt 3.03539 0.00321902
vn -0.208909 -0.0044757 0.977925
v -0.849007 3.6987 4.05484
vt 3.05424 3.72041
vt 1.97712 3.72588
f 81/192/36 82/193/38 83/194/38 80/195/36 

vt -1.73707 2.29227
v -4.06269 0.0113832 0.526464
vt -2.03077 2.99017
v 4.05942 -0.017136 0.556504
vt -8.80556 -1.49007
v 4.03507 -0.0186765 0.861904
vt -8.61769 -1.73208
v 3.67448 -0.0228198 1.87688
vt -7.75946 -2.38297
v 3.06348 -0.025408 2.76396
vt -6.76201 -2.78957
v 2.24371 -0.0262647 3.46267
vt -5.69331 -2.92415
v 1.27103 -0.0253314 3.92541
vt -4.62619 -2.77754
v 0.211738 -0.0226719 4.12064
vt -3.63338 -2.35974
vt -2.78254 -1.69922
vt -2.13164 -0.840995
vt -1.72505 0.156456
vt -1.59047 1.22515
f 74/196/1 84/197/1 85/198/1 86/199/1 87/200/1 88/201/1 89/202/1 90/203/1 91/204/1 82/205/1 81/206/1 76/207/1 75/208/1 

vt -3.86354 0.041283
vt -3.54359 0.0394058
vn -0.983434 0.00246906 0.181248
vt -2.78642 0.0349632
vt -2.76461 3.75214
vt -3.84173 3.75846
f 59/209/20 84/210/39 74/211/34 55/212/34 56/213/20 

v 4.12068 -0.0132604 -0.211813
vt -9.27821 -0.88123
vt -2.15487 3.28508
f 92/214/1 85/198/1 84/197/1 59/215/1 58/110/1 61/109/1 

usemtl BackColor
f 61/109/2 58/110/2 59/215/2 84/197/2 85/198/2 92/214/2 

vn 0.977929 -0.00452638 0.208889
vn 0.998676 -0.00321375 -0.0513345
vn 0.996831 -0.00390346 0.0794569
f 54/107/40 56/106/41 59/105/41 58/104/42 57/103/40 

vn 0.983434 -0.00246906 -0.181248
f 56/213/41 55/212/35 74/211/35 84/210/43 59/209/41 

f 75/208/2 76/207/2 81/206/2 82/205/2 91/204/2 90/203/2 89/202/2 88/201/2 87/200/2 86/199/2 85/198/2 84/197/2 74/196/2 

vn 0.208909 0.0044757 -0.977925
f 80/195/37 83/194/44 82/193/44 81/192/37 

usemtl Body
v -1.21824 3.70192 3.69244
vt 2.67258 -1.19367
vt 2.78254 -1.69922
f 93/216/2 80/187/2 83/217/2

f 79/186/2 80/187/2 93/216/2

usemtl BackColor
f 93/216/1 80/187/1 79/186/1

f 83/217/1 80/187/1 93/216/1

usemtl Body
vt 3.39633 -1.89987
f 93/216/2 83/217/2 25/218/2

usemtl BackColor
f 25/218/1 83/217/1 93/216/1

usemtl Body
v 0.224717 3.69449 4.14042
vt 3.63338 -2.35974
f 25/218/2 83/217/2 94/219/2

usemtl BackColor
f 94/219/1 83/217/1 25/218/1

usemtl Body
vt 3.24001 0.00596678
vt 4.31714 0.00176216
vn 0.0513164 -0.00549471 0.998667
vt 4.33165 3.71898
vt 3.25452 3.72318
f 82/220/38 91/221/45 94/222/45 83/223/38 

usemtl BackColor
vn -0.0513164 0.00549471 -0.998667
f 83/223/44 94/222/46 91/221/46 82/220/44 

usemtl Body
vt 4.26426 0.0080853
vt 5.34139 0.00542574
vn 0.308044 -0.00613926 0.951352
v 1.28401 3.69184 3.9452
vt 5.35057 3.72266
vt 4.27343 3.72532
f 91/224/45 90/225/47 95/226/47 94/227/45 

usemtl BackColor
vn -0.308044 0.00613926 -0.951352
f 94/227/46 95/226/48 90/225/48 91/224/46 

usemtl Body
vt 4.27819 -2.3947
vt 4.62619 -2.77754
f 26/228/2 94/219/2 95/229/2

f 25/218/2 94/219/2 26/228/2

usemtl BackColor
f 26/228/1 94/219/1 25/218/1

f 95/229/1 94/219/1 26/228/1

usemtl Body
vt 5.25808 -2.64442
f 26/228/2 95/229/2 27/230/2

usemtl BackColor
f 27/230/1 95/229/1 26/228/1

usemtl Body
v 2.25669 3.6909 3.48246
vt 5.69331 -2.92415
f 27/230/2 95/229/2 96/231/2

usemtl BackColor
f 96/231/1 95/229/1 27/230/1

usemtl Body
vt 4.9612 0.0143157
vt 6.03834 0.0133825
vn 0.543779 -0.00636543 0.839204
vt 6.04156 3.73062
vt 4.96442 3.73156
f 90/232/47 89/233/49 96/234/49 95/235/47 

usemtl BackColor
vn -0.543779 0.00636543 -0.839204
f 95/235/48 96/234/50 89/233/50 90/232/48 

usemtl Body
vt 5.28333 0.0228162
vt 6.36047 0.0236729
vn 0.742457 -0.00615781 0.669865
v 3.07646 3.69176 2.78374
vt 6.35751 3.74091
vt 5.28037 3.74006
f 89/236/49 88/237/51 97/238/51 96/239/49 

usemtl BackColor
vn -0.742457 0.00615781 -0.669865
f 96/239/50 97/238/52 88/237/52 89/236/50 

usemtl Body
vt 6.2692 -2.63202
vt 6.76201 -2.78957
f 28/240/2 96/231/2 97/241/2

f 27/230/2 96/231/2 28/240/2

usemtl BackColor
f 28/240/1 96/231/1 27/230/1

f 97/241/1 96/231/1 28/240/1

usemtl Body
vt 7.24267 -2.35834
f 28/240/2 97/241/2 29/242/2

usemtl BackColor
f 29/242/1 97/241/1 28/240/1

usemtl Body
v 3.68746 3.69435 1.89667
vt 7.75946 -2.38297
f 29/242/2 97/241/2 98/243/2

usemtl BackColor
f 98/243/1 97/241/1 29/242/1

usemtl Body
vt 5.20869 0.0311301
vt 6.28583 0.0337183
vn 0.890537 -0.00553055 0.454877
vt 6.2769 3.75095
vt 5.19976 3.74836
f 88/244/51 87/245/53 98/246/53 97/247/51 

usemtl BackColor
vn -0.890537 0.00553055 -0.454877
f 97/247/52 98/246/54 87/245/54 88/244/52 

usemtl Body
vt 4.74238 0.0368567
vt 5.81951 0.0410001
v 4.04805 3.69849 0.881689
vt 5.80522 3.75821
vt 4.72809 3.75407
f 87/248/53 86/249/40 99/250/40 98/251/53 

usemtl BackColor
f 98/251/54 99/250/18 86/249/18 87/248/54 

usemtl Body
vt 8.61769 -1.73208
f 31/79/2 98/243/2 99/252/2

vt 8.11213 -1.84203
f 30/253/2 98/243/2 31/79/2

f 29/242/2 98/243/2 30/253/2

usemtl BackColor
f 30/253/1 98/243/1 29/242/1

f 31/79/1 98/243/1 30/253/1

f 99/252/1 98/243/1 31/79/1

usemtl Body
f 31/79/2 99/252/2 33/77/2

usemtl BackColor
f 33/77/1 99/252/1 31/79/1

usemtl Body
v 4.13366 3.70391 -0.192028
vt 9.27821 -0.88123
f 33/77/2 99/252/2 100/254/2

usemtl BackColor
f 100/254/1 99/252/1 33/77/1

usemtl Body
vt 3.91619 0.0383062
vt 4.22256 0.0398468
vt 4.99331 0.0437224
vt 4.97462 3.76092
vt 3.8975 3.7555
f 86/255/40 85/256/42 92/257/41 100/258/41 99/259/40 

usemtl BackColor
f 99/259/18 100/258/20 92/257/20 85/256/19 86/255/18 

usemtl Body
vt 2.78642 0.0349632
vt 3.007 0.0362575
vt 3.86354 0.041283
vt 3.84173 3.75846
vt 2.76461 3.75214
f 92/260/41 61/261/43 60/262/35 33/263/35 100/264/41 

usemtl BackColor
f 100/264/20 33/263/34 60/262/34 61/261/39 92/260/20 

usemtl Body
vt 1.43008 0.0276332
vt 2.5072 0.034426
vt 2.48375 3.75159
vt 1.40664 3.7448
f 60/265/35 70/266/21 35/267/21 33/268/35 

usemtl BackColor
f 33/268/34 35/267/23 70/266/23 60/265/34 

f 33/77/1 34/80/1 35/81/1

f 32/78/1 34/80/1 33/77/1

usemtl Color_008
vt 2.04773 3.74856
vt 3.05891 3.7548
vt 3.05121 5.00319
vt 2.04003 4.99695
f 32/269/17 34/270/25 16/271/25 17/272/17 

usemtl BackColor
f 17/272/33 16/271/27 34/270/27 32/269/33 

f 18/76/16 17/75/33 32/74/33 31/73/16 

f 31/79/1 32/78/1 33/77/1

usemtl Color_008
vt 2.76305 3.72361
vt 3.77425 3.71911
vt 3.7798 4.96752
vt 2.7686 4.97202
f 93/273/32 25/274/3 24/275/3 1/276/32 

usemtl BackColor
f 1/276/31 24/275/5 25/274/5 93/273/31 

usemtl Color_008
vt 1.40015 3.72825
vt 2.41134 3.72271
vt 2.41817 4.97111
vt 1.40698 4.97665
f 79/277/30 93/278/32 1/279/32 2/280/30 

usemtl BackColor
f 2/280/29 1/279/31 93/278/31 79/277/29 

usemtl Color_008
vt -0.0926134 3.73649
vt 0.918572 3.7303
vt 0.926222 4.97869
vt -0.0849632 4.98489
f 78/281/28 79/282/30 2/283/30 3/284/28 

usemtl BackColor
f 3/284/26 2/283/29 79/282/29 78/281/26 

usemtl Color_008
vt -1.61351 3.7462
vt -0.602329 3.73977
vt -0.594382 4.98816
vt -1.60557 4.9946
f 73/285/27 78/286/28 3/287/28 4/288/27 

usemtl BackColor
f 4/288/25 3/287/26 78/286/26 73/285/25 

f 5/174/17 4/173/25 73/172/25 71/171/17 

usemtl Body
vt -5.81951 0.0410001
vt -4.74238 0.0368567
vt -4.72809 3.75407
vt -5.80522 3.75821
f 62/289/54 57/290/18 54/291/18 52/292/54 

usemtl BackColor
f 52/292/53 54/291/40 57/290/40 62/289/53 

f 52/98/1 53/99/1 54/100/1

f 53/99/1 55/101/1 54/100/1

usemtl Body
vt -6.28583 0.0337183
vt -5.20869 0.0311301
vt -5.19976 3.74836
vt -6.2769 3.75095
f 63/293/52 62/294/54 52/295/54 49/296/52 

usemtl BackColor
f 49/296/51 52/295/53 62/294/53 63/293/51 

f 49/95/1 51/97/1 52/98/1

usemtl Body
vt -6.36047 0.0236729
vt -5.28333 0.0228162
vt -5.28037 3.74006
vt -6.35751 3.74091
f 64/297/50 63/298/52 49/299/52 47/300/50 

usemtl BackColor
f 47/300/49 49/299/51 63/298/51 64/297/49 

f 47/93/1 48/94/1 49/95/1

usemtl Body
vt -6.03834 0.0133825
vt -4.9612 0.0143157
vt -4.96442 3.73156
vt -6.04156 3.73062
f 65/301/48 64/302/50 47/303/50 45/304/48 

usemtl BackColor
f 45/304/47 47/303/49 64/302/49 65/301/47 

f 45/91/1 46/92/1 47/93/1

usemtl Body
vt -5.34139 0.00542574
vt -4.26426 0.0080853
vt -4.27343 3.72532
vt -5.35057 3.72266
f 66/305/46 65/306/48 45/307/48 43/308/46 

usemtl BackColor
f 43/308/45 45/307/47 65/306/47 66/305/45 

f 43/89/1 44/90/1 45/91/1

usemtl Body
vt -4.31714 0.00176216
vt -3.24001 0.00596678
vt -3.25452 3.72318
vt -4.33165 3.71898
f 67/309/44 66/310/46 43/311/46 41/312/44 

usemtl BackColor
f 41/312/38 43/311/45 66/310/45 67/309/38 

f 41/87/1 42/88/1 43/89/1

usemtl Body
vt -3.03539 0.00321902
vt -1.95827 0.00868215
vt -1.97712 3.72588
vt -3.05424 3.72041
f 68/313/37 67/314/44 41/315/44 39/316/37 

usemtl BackColor
f 39/316/36 41/315/38 67/314/38 68/313/36 

f 39/85/1 40/86/1 41/87/1

usemtl Body
vt -1.5835 0.00928016
vt -0.506383 0.0156295
vt -0.528294 3.73281
vt -1.60541 3.72646
f 69/317/22 68/318/37 39/319/37 37/320/22 

usemtl BackColor
f 37/320/24 39/319/36 68/318/36 69/317/24 

f 37/83/1 38/84/1 39/85/1

